<svg width="57" height="57" viewBox="0 0 57 57" fill="none" xmlns="http://www.w3.org/2000/svg">
<g clip-path="url(#clip0_40_214)">
<g clip-path="url(#clip1_40_214)">
<path d="M26.3992 30.3576L6.33332 17.97C5.2956 17.304 4.56097 16.257 4.28763 15.0546C4.01427 13.8522 4.22406 12.5905 4.87185 11.5413C5.51961 10.492 6.55354 9.73914 7.75098 9.44475C8.94841 9.15036 10.2136 9.338 11.274 9.96727L25.9952 19.0548L38.9737 9.70292C39.9866 8.99617 41.2368 8.71618 42.4543 8.92346C43.6718 9.13075 44.759 9.80867 45.4809 10.8108C46.2031 11.8129 46.5018 13.0588 46.3128 14.2793C46.124 15.4999 45.4627 16.5971 44.4715 17.3341L26.3992 30.3576Z" fill="#EA4435"/>
<path d="M43.6773 41.7134L37.407 41.7991L37.0214 13.5823C37.0043 12.3351 37.4834 11.1321 38.3532 10.2381C39.2232 9.34411 40.4126 8.8323 41.6599 8.81526C42.907 8.79822 44.1101 9.27733 45.0041 10.1472C45.898 11.0171 46.4099 12.2065 46.427 13.4538L46.7697 38.5354C46.7811 39.3668 46.4616 40.1689 45.8815 40.7649C45.3016 41.3608 44.5088 41.7021 43.6773 41.7134Z" fill="#00AC47"/>
<path d="M46.3483 12.7741C46.3332 12.6802 46.3329 12.5841 46.3121 12.4905C46.28 12.347 46.2222 12.2148 46.1775 12.0765C46.1337 11.9181 46.0813 11.7622 46.0208 11.6094C45.9884 11.5353 45.9394 11.4706 45.9028 11.3987C45.8024 11.1911 45.6867 10.9911 45.5567 10.8006C45.4928 10.7104 45.4134 10.6338 45.343 10.5485C45.222 10.3935 45.0913 10.2461 44.9519 10.1072C44.8465 10.0072 44.7264 9.92401 44.6118 9.83416C44.49 9.73254 44.363 9.6371 44.2316 9.5482C44.1061 9.46869 43.9693 9.40802 43.8369 9.34052C43.6972 9.27015 43.5605 9.1933 43.4154 9.13758C43.2752 9.08338 43.1262 9.04967 42.9799 9.00887C42.8336 8.96805 42.6882 8.91878 42.5383 8.89306C42.3526 8.86585 42.1655 8.84956 41.9778 8.84428C41.8588 8.8376 41.7406 8.81837 41.6212 8.82093C41.3996 8.83043 41.1789 8.85572 40.9607 8.8966C40.8726 8.91098 40.7838 8.91109 40.6963 8.93047C40.4018 9.02488 40.1081 9.12194 39.8152 9.2216C39.7349 9.25719 39.6649 9.30942 39.5874 9.34936C38.7964 9.7317 38.1331 10.3349 37.6775 11.0862C37.2222 11.8374 36.9939 12.7045 37.0207 13.5826L37.1442 22.6151L44.4724 17.3342C45.1924 16.8366 45.7526 16.1411 46.0855 15.3317C46.4183 14.5223 46.5098 13.6342 46.3483 12.7741Z" fill="#FFBA00"/>
<path d="M8.73903 9.26509C9.98629 9.24804 11.1892 9.72716 12.0832 10.5971C12.9772 11.467 13.489 12.6564 13.5061 13.9036L13.8917 42.1204L7.62125 42.2061C6.78975 42.2174 5.98779 41.898 5.3918 41.3181C4.7958 40.7383 4.45458 39.9452 4.44322 39.1137L4.10049 14.0321C4.08345 12.7849 4.56257 11.5819 5.43246 10.6879C6.30238 9.79393 7.49177 9.28213 8.73903 9.26509Z" fill="#4285F4"/>
<path d="M4.16147 13.3498C4.17398 13.2556 4.17156 13.1595 4.18987 13.0653C4.218 12.921 4.27214 12.7873 4.31321 12.6479C4.35267 12.4884 4.40067 12.3311 4.45696 12.1768C4.4873 12.1019 4.53469 12.0359 4.56944 11.9629C4.66407 11.7526 4.77419 11.5495 4.89887 11.3554C4.96033 11.2635 5.03765 11.1848 5.10575 11.0977C5.22247 10.9393 5.3489 10.7884 5.48435 10.6458C5.5872 10.5429 5.70488 10.4565 5.81713 10.3636C5.93613 10.2586 6.06036 10.1597 6.18937 10.0673C6.31257 9.98444 6.44778 9.92003 6.57836 9.84893C6.71323 9.7702 6.85195 9.69829 6.99403 9.63348C7.13279 9.57544 7.28091 9.53767 7.4258 9.49289C7.57069 9.44812 7.71499 9.39487 7.86414 9.36508C8.04901 9.33278 8.23564 9.31139 8.42302 9.301C8.54204 9.29107 8.65949 9.2686 8.77894 9.26792C9.0008 9.27133 9.22212 9.29059 9.44123 9.3255C9.52967 9.33746 9.61852 9.33514 9.70655 9.35213C9.85882 9.38873 10.0091 9.43313 10.1568 9.4852C10.3051 9.52246 10.4515 9.56715 10.5953 9.61907C10.6763 9.65245 10.7477 9.70275 10.8266 9.74056C11.0312 9.83324 11.2287 9.9406 11.4177 10.0617C12.0517 10.4844 12.5732 11.055 12.9373 11.7243C13.3014 12.3935 13.4971 13.1414 13.5075 13.9032L13.631 22.9357L6.16113 17.8573C5.428 17.3795 4.849 16.6995 4.49414 15.8995C4.13925 15.0996 4.02372 14.214 4.16147 13.3498Z" fill="#C52528"/>
</g>
</g>
<defs>
<clipPath id="clip0_40_214">
<rect width="55.7102" height="55.7102" fill="white" transform="translate(0 0.76123) rotate(-0.78286)"/>
</clipPath>
<clipPath id="clip1_40_214">
<rect width="50.1678" height="50.1678" fill="white" transform="translate(0.000202179 0.760986) rotate(-0.78286)"/>
</clipPath>
</defs>
</svg>
