<svg width="129" height="121" viewBox="0 0 129 121" fill="none" xmlns="http://www.w3.org/2000/svg">
<path fill-rule="evenodd" clip-rule="evenodd" d="M5.01056 38.4896C5.01056 38.4896 34.0662 86.2159 43.1573 99.9723C52.2485 113.729 55.7891 115.674 64.9066 115.334C74.0242 114.994 80.6471 103.94 84.4898 97.5572C88.3323 91.1749 119.479 41.2171 123.126 35.3557C126.773 29.4942 128.14 23.3718 122.8 18.5523C117.46 13.7327 109.123 15.6214 104.434 23.5673C99.7444 31.5132 63.1987 91.706 63.1987 91.706C63.1987 91.706 23.3077 26.2314 20.845 22.3899C18.3824 18.5482 12.1765 13.4258 4.49312 17.9079C-3.19029 22.3899 0.454568 32.8314 5.01056 38.4896V38.4896Z" fill="url(#paint0_linear_193_1831)"/>
<path fill-rule="evenodd" clip-rule="evenodd" d="M56.9084 114.108C55.2758 113.967 53.3912 113.704 51.2557 113.259C49.0854 112.805 47.0601 111.781 45.1852 110.416C42.6648 110.314 38.1519 109.192 34.1042 105.976C28.8373 101.793 22.7341 94.7537 17.5659 91.702C14.6556 89.9834 11.618 89.4995 9.51953 89.4043C20.8335 108.363 41.1161 121 64.2555 121C80.2875 121 94.9481 114.934 106.205 104.902C100.977 107.016 91.9404 110.365 86.7716 110.533C81.7498 110.696 78.3813 109.718 76.5466 108.983C73.3624 112.355 69.5785 114.959 65.2261 115.121C61.888 115.245 59.2973 115.063 56.9083 114.107L56.9084 114.108Z" fill="url(#paint1_linear_193_1831)"/>
<path fill-rule="evenodd" clip-rule="evenodd" d="M45.1853 110.415C39.3194 106.145 34.9286 98.5432 32.2056 94.701C28.6125 89.6307 23.6898 84.1667 17.9304 82.3948C14.2427 81.2602 9.12155 81.8813 5.91504 82.4749C6.98619 84.8652 8.19115 87.1784 9.51964 89.4043C11.6181 89.4995 14.6557 89.9834 17.566 91.7021C22.7342 94.7538 28.8374 101.793 34.1043 105.976C38.152 109.192 42.665 110.314 45.1853 110.416L45.1853 110.415Z" fill="url(#paint2_linear_193_1831)"/>
<path fill-rule="evenodd" clip-rule="evenodd" d="M32.2052 94.7007C34.9282 98.543 39.3191 106.144 45.1849 110.415C47.0597 111.78 49.0851 112.805 51.2554 113.258C53.3909 113.704 55.2755 113.967 56.9081 114.107C52.7716 112.453 49.2393 108.479 43.4766 99.7589C39.9236 94.3827 33.3214 83.8179 26.5958 72.9411C25.3545 72.6596 23.9995 72.4229 22.5221 72.248C12.6865 71.0829 6.03934 74.421 3.43115 76.0768C4.15378 78.2629 4.98405 80.3979 5.91463 82.4746C9.12114 81.881 14.2423 81.2599 17.93 82.3945C23.6894 84.1665 28.6121 89.6305 32.2052 94.7007L32.2052 94.7007Z" fill="url(#paint3_linear_193_1831)"/>
<path fill-rule="evenodd" clip-rule="evenodd" d="M83.0096 100.293C81.2477 103.112 79.088 106.292 76.5464 108.983C78.3808 109.718 81.7491 110.695 86.7714 110.533C91.9402 110.365 100.977 107.016 106.204 104.902C112.308 99.4627 117.41 92.8577 121.188 85.4215C119.242 85.3725 116.606 85.5238 113.383 86.2179C106.023 87.8029 97.8138 92.389 91.4727 96.4653C88.1891 98.5761 85.1636 99.7001 83.0096 100.294L83.0096 100.293Z" fill="url(#paint4_linear_193_1831)"/>
<path fill-rule="evenodd" clip-rule="evenodd" d="M83.0098 100.294C85.1638 99.7004 88.1893 98.5763 91.4729 96.4655C97.8139 92.3893 106.023 87.8031 113.383 86.2181C116.606 85.524 119.242 85.3728 121.188 85.4217C122.786 82.2773 124.146 78.9844 125.245 75.5679C118.391 71.8935 108.752 73.9315 104.551 76.5877C101.101 78.7683 95.3485 83.0027 92.2092 85.3454C88.5659 91.2204 85.793 95.7102 84.8093 97.344C84.2649 98.248 83.6648 99.246 83.0098 100.294Z" fill="url(#paint5_linear_193_1831)"/>
<path fill-rule="evenodd" clip-rule="evenodd" d="M26.5961 72.9415C24.692 69.8625 22.778 66.7583 20.9205 63.7395C18.2451 61.4735 14.3281 58.7105 10.2878 57.7952C6.53745 56.9451 2.80203 57.2783 0.0703125 57.7976C0.362136 64.1668 1.52211 70.3014 3.43144 76.0773C6.03963 74.4215 12.6868 71.0833 22.5224 72.2484C23.9998 72.4233 25.3548 72.66 26.5961 72.9415Z" fill="url(#paint6_linear_193_1831)"/>
<path fill-rule="evenodd" clip-rule="evenodd" d="M0 53.9802C1.9698 53.6846 4.78398 53.2893 8.14374 52.894C5.14441 50.3324 2.56199 45.569 1.07552 42.4321C0.402861 46.1804 0.0354846 50.039 0 53.9802Z" fill="url(#paint7_linear_193_1831)"/>
<path fill-rule="evenodd" clip-rule="evenodd" d="M52.7393 60.4595L68.1707 83.8273C69.3003 81.9655 70.5953 79.8315 72.0086 77.5019C71.0917 75.4357 69.4292 72.6838 66.4192 69.6448C59.997 63.1608 52.7393 60.4595 52.7393 60.4595Z" fill="url(#paint8_linear_193_1831)"/>
<path fill-rule="evenodd" clip-rule="evenodd" d="M112.374 64.4974C112.374 64.4974 117.351 71.2649 126.969 69.1446C127.901 64.8323 128.427 60.3611 128.504 55.7773C126.107 60.0687 120.73 67.423 114.512 61.2524L112.374 64.4974V64.4974Z" fill="url(#paint9_linear_193_1831)"/>
<path fill-rule="evenodd" clip-rule="evenodd" d="M114.512 61.2525C120.73 67.423 126.107 60.0687 128.504 55.7774C128.51 55.3882 128.513 54.998 128.513 54.6073C128.513 50.2321 128.104 45.9558 127.322 41.8174L114.512 61.2525V61.2525Z" fill="url(#paint10_linear_193_1831)"/>
<path fill-rule="evenodd" clip-rule="evenodd" d="M59.7969 48.433C45.3591 41.6042 44.2079 31.2133 47.9207 22.0405C51.7422 12.5992 67.1774 6.38026 79.2409 15.2968C88.0768 21.8274 86.9041 31.2522 85.5849 36.2699C86.3625 35.0479 87.0669 33.6274 87.6624 31.9839C92.3151 19.1464 85.1639 4.6723 71.982 1.14007C58.7999 -2.39216 41.9996 2.00146 30.1099 18.285C31.9191 31.1221 42.2244 48.8788 56.6834 58.4678C67.3461 65.5396 75.4024 66.2553 78.8967 66.1439C81.7198 61.4876 84.6872 56.5913 87.5716 51.8294C76.2691 55.0621 63.7544 50.1742 61.0994 49.0236C60.7846 48.8872 60.4374 48.7028 60.072 48.4703C59.9618 48.4762 59.8672 48.4665 59.7968 48.433L59.7969 48.433Z" fill="url(#paint11_linear_193_1831)"/>
<path fill-rule="evenodd" clip-rule="evenodd" d="M51.1754 28.024C52.9739 20.0062 64.0639 15.7353 72.2314 18.6575C79.6533 21.3131 83.1151 28.9189 82.2795 40.0689C83.4529 39.0977 84.5804 37.8489 85.5853 36.2696C86.9045 31.2517 88.0768 21.8271 79.2413 15.2965C67.1777 6.38001 51.7426 12.5989 47.9211 22.0402C44.2083 31.2131 45.3595 41.604 59.7973 48.4327C59.8677 48.4662 59.9622 48.4759 60.0725 48.47C57.9466 47.1169 55.2011 44.134 54.6119 39.4982C52.3552 36.3846 50.2468 32.1647 51.1754 28.024V28.024Z" fill="url(#paint12_linear_193_1831)"/>
<path fill-rule="evenodd" clip-rule="evenodd" d="M72.2313 18.6579C64.0638 15.7357 52.9738 20.0066 51.1753 28.0245C50.2467 32.1652 52.3551 36.3851 54.6117 39.4986C54.3512 37.4477 54.5124 35.0735 55.336 32.3735C58.3411 22.5213 73.8092 20.7969 76.5184 29.3686C79.2279 37.9402 72.1343 40.0091 70.6899 41.5474C71.4204 43.3128 77.269 44.218 82.2794 40.0694C83.115 28.9194 79.6532 21.3135 72.2313 18.658V18.6579Z" fill="url(#paint13_linear_193_1831)"/>
<path fill-rule="evenodd" clip-rule="evenodd" d="M78.8971 66.144C76.3389 66.2255 71.3364 65.8639 64.6558 62.8901C66.0055 64.0209 68.1474 65.8153 70.9405 68.1551C73.4918 70.292 74.7677 71.3642 75.4055 71.902C76.532 70.0446 77.7017 68.1158 78.8971 66.144H78.8971Z" fill="url(#paint14_linear_193_1831)"/>
<defs>
<linearGradient id="paint0_linear_193_1831" x1="63.7166" y1="16.4328" x2="64.9067" y2="115.334" gradientUnits="userSpaceOnUse">
<stop stop-color="#80F74D"/>
<stop offset="1" stop-color="#00B254"/>
</linearGradient>
<linearGradient id="paint1_linear_193_1831" x1="14.8801" y1="93.9339" x2="93.6026" y2="113.687" gradientUnits="userSpaceOnUse">
<stop stop-color="#0B1D29"/>
<stop offset="1" stop-color="#002E40"/>
</linearGradient>
<linearGradient id="paint2_linear_193_1831" x1="5.915" y1="82.4748" x2="41.5817" y2="108.478" gradientUnits="userSpaceOnUse">
<stop stop-color="#0B707A"/>
<stop offset="1" stop-color="#0B2C3F"/>
</linearGradient>
<linearGradient id="paint3_linear_193_1831" x1="3.43115" y1="76.0769" x2="53.6141" y2="112.197" gradientUnits="userSpaceOnUse">
<stop stop-color="#52EDE5"/>
<stop offset="1" stop-color="#11848B"/>
</linearGradient>
<linearGradient id="paint4_linear_193_1831" x1="76.5464" y1="108.983" x2="120.74" y2="89.2057" gradientUnits="userSpaceOnUse">
<stop stop-color="#00575C"/>
<stop offset="1" stop-color="#1CDDC8"/>
</linearGradient>
<linearGradient id="paint5_linear_193_1831" x1="125.245" y1="75.5679" x2="84.8093" y2="97.344" gradientUnits="userSpaceOnUse">
<stop stop-color="#27FAE7"/>
<stop offset="1" stop-color="#08D2C6"/>
</linearGradient>
<linearGradient id="paint6_linear_193_1831" x1="0.16845" y1="59.4906" x2="25.4908" y2="71.1531" gradientUnits="userSpaceOnUse">
<stop stop-color="#2BF48C"/>
<stop offset="1" stop-color="#0ADF8B"/>
</linearGradient>
<linearGradient id="paint7_linear_193_1831" x1="4.06749" y1="53.4051" x2="0.707954" y2="44.7001" gradientUnits="userSpaceOnUse">
<stop stop-color="#124D53"/>
<stop offset="1" stop-color="#006E68"/>
</linearGradient>
<linearGradient id="paint8_linear_193_1831" x1="69.2369" y1="82.0702" x2="49.0443" y2="56.6499" gradientUnits="userSpaceOnUse">
<stop stop-color="#0F2E4B"/>
<stop offset="0.476532" stop-color="#054C4F"/>
<stop offset="1" stop-color="#13E1BE"/>
</linearGradient>
<linearGradient id="paint9_linear_193_1831" x1="112.374" y1="64.4974" x2="127.503" y2="66.4024" gradientUnits="userSpaceOnUse">
<stop stop-color="#006F6B"/>
<stop offset="1" stop-color="#01A79B"/>
</linearGradient>
<linearGradient id="paint10_linear_193_1831" x1="114.512" y1="61.2525" x2="128.376" y2="50.2351" gradientUnits="userSpaceOnUse">
<stop stop-color="#10D377"/>
<stop offset="1" stop-color="#64F78C"/>
</linearGradient>
<linearGradient id="paint11_linear_193_1831" x1="34.7458" y1="12.7657" x2="79.7372" y2="64.7581" gradientUnits="userSpaceOnUse">
<stop stop-color="#51F18F"/>
<stop offset="0.168627" stop-color="#3CF389"/>
<stop offset="0.529412" stop-color="#14E1BA"/>
<stop offset="1" stop-color="#12E1C3"/>
</linearGradient>
<linearGradient id="paint12_linear_193_1831" x1="66.1985" y1="13.2177" x2="63.5643" y2="49.9882" gradientUnits="userSpaceOnUse">
<stop stop-color="#1EF6D1"/>
<stop offset="1" stop-color="#005A54"/>
</linearGradient>
<linearGradient id="paint13_linear_193_1831" x1="68.7224" y1="19.8726" x2="63.5641" y2="40.0656" gradientUnits="userSpaceOnUse">
<stop stop-color="#13DEC0"/>
<stop offset="1" stop-color="#0C5661"/>
</linearGradient>
<linearGradient id="paint14_linear_193_1831" x1="76.1642" y1="70.6507" x2="66.352" y2="63.6047" gradientUnits="userSpaceOnUse">
<stop stop-color="#046667"/>
<stop offset="1" stop-color="#335B65"/>
</linearGradient>
</defs>
</svg>
