<svg width="48" height="48" viewBox="0 0 48 48" fill="none" xmlns="http://www.w3.org/2000/svg">
<g clip-path="url(#clip0_40_162)">
<g clip-path="url(#clip1_40_162)">
<g clip-path="url(#clip2_40_162)">
<path d="M48 24C48 10.7452 37.2548 0 24 0C10.7452 0 0 10.7452 0 24C0 37.2548 10.7452 48 24 48C37.2548 48 48 37.2548 48 24Z" fill="white"/>
<mask id="mask0_40_162" style="mask-type:luminance" maskUnits="userSpaceOnUse" x="10" y="10" width="28" height="28">
<path d="M38 10H10V38H38V10Z" fill="white"/>
</mask>
<g mask="url(#mask0_40_162)">
<path d="M36.4444 10H11.5556C10.6964 10 10 10.6964 10 11.5556V36.4444C10 37.3036 10.6964 38 11.5556 38H36.4444C37.3036 38 38 37.3036 38 36.4444V11.5556C38 10.6964 37.3036 10 36.4444 10Z" fill="#117EB8"/>
<path fill-rule="evenodd" clip-rule="evenodd" d="M15.1099 20.8298H18.8521V32.8706H15.1099V20.8298ZM16.9816 14.8444C18.1782 14.8444 19.1504 15.8166 19.1504 17.0132C19.1504 18.211 18.1782 19.1836 16.9816 19.1836C16.6932 19.1891 16.4066 19.137 16.1386 19.0304C15.8706 18.9238 15.6265 18.7649 15.4207 18.5629C15.2148 18.3609 15.0513 18.1198 14.9396 17.8539C14.828 17.588 14.7705 17.3024 14.7705 17.014C14.7705 16.7256 14.828 16.44 14.9396 16.1741C15.0513 15.9081 15.2148 15.6671 15.4207 15.4651C15.6265 15.2631 15.8706 15.1042 16.1386 14.9976C16.4066 14.891 16.6932 14.8389 16.9816 14.8444ZM21.1995 20.8294H24.7889V22.4748H24.8387C25.3384 21.5282 26.5591 20.5303 28.3795 20.5303C32.1689 20.5303 32.8689 23.0243 32.8689 26.2664V32.8706H29.1289V27.0151C29.1289 25.6189 29.1033 23.8227 27.1845 23.8227C25.2373 23.8227 24.9383 25.3436 24.9383 26.9143V32.8706H21.1991L21.1995 20.8294Z" fill="white"/>
</g>
</g>
</g>
</g>
<defs>
<clipPath id="clip0_40_162">
<rect width="48" height="48" fill="white"/>
</clipPath>
<clipPath id="clip1_40_162">
<rect width="48" height="48" fill="white"/>
</clipPath>
<clipPath id="clip2_40_162">
<rect width="48" height="48" fill="white"/>
</clipPath>
</defs>
</svg>
