<svg width="15" height="23" viewBox="0 0 15 23" fill="none" xmlns="http://www.w3.org/2000/svg">
<path d="M6.81019 17.825C6.95518 18.0541 7.21002 18.2068 7.5 18.2068C7.78998 18.2068 8.04481 18.0541 8.1942 17.825L13.036 10.1793C13.6863 9.15059 14.0641 8.01855 14.0641 6.70684C14.0598 2.91543 11.1467 0 7.5 0C3.85325 0 0.940246 2.91543 0.940246 6.70684C0.940246 8.01855 1.3181 9.15059 1.96837 10.1793L6.81019 17.825ZM7.5 2.875C9.56942 2.875 11.2478 4.59102 11.2478 6.70684C11.2478 8.82266 9.56942 10.5387 7.5 10.5387C5.43058 10.5387 3.7522 8.82266 3.7522 6.70684C3.7522 4.59102 5.43058 2.875 7.5 2.875ZM12.3067 14.5322L7.5 21.0818L2.69332 14.5322C1.05009 15.4127 0 16.7289 0 18.2068C0 20.8527 3.35677 23 7.5 23C11.6432 23 15 20.8527 15 18.2068C15 16.7289 13.9499 15.4127 12.3067 14.5322Z" fill="white"/>
</svg>
