<svg width="254" height="299" viewBox="0 0 254 299" fill="none" xmlns="http://www.w3.org/2000/svg">
<path fill-rule="evenodd" clip-rule="evenodd" d="M13.5522 73.3778C13.5522 73.3778 68.945 164.365 86.2767 190.591C103.609 216.817 110.358 220.525 127.74 219.877C145.122 219.229 157.749 198.154 165.075 185.986C172.4 173.819 231.779 78.5776 238.732 67.4031C245.685 56.2285 248.292 44.5566 238.111 35.3686C227.93 26.1802 212.037 29.7809 203.097 44.9292C194.157 60.0776 124.484 174.832 124.484 174.832C124.484 174.832 48.4346 50.0082 43.7397 42.6846C39.0447 35.3607 27.2137 25.5951 12.5657 34.1399C-2.08222 42.6846 4.86648 62.5907 13.5522 73.3778V73.3778Z" fill="url(#paint0_linear_193_1795)"/>
<path fill-rule="evenodd" clip-rule="evenodd" d="M112.492 217.539C109.379 217.271 105.787 216.77 101.715 215.921C97.5779 215.057 93.7167 213.103 90.1424 210.5C85.3375 210.307 76.7338 208.167 69.0171 202.037C58.9761 194.061 47.3408 180.642 37.4879 174.824C31.9395 171.548 26.1486 170.625 22.1479 170.444C43.7173 206.587 82.3849 230.679 126.499 230.679C157.063 230.679 185.012 219.115 206.472 199.99C196.507 204.02 179.278 210.404 169.424 210.724C159.85 211.034 153.429 209.171 149.931 207.769C143.86 214.197 136.647 219.162 128.349 219.471C121.985 219.708 117.046 219.361 112.492 217.539L112.492 217.539Z" fill="url(#paint1_linear_193_1795)"/>
<path fill-rule="evenodd" clip-rule="evenodd" d="M90.1427 210.5C78.9598 202.358 70.5889 187.866 65.3978 180.541C58.5477 170.875 49.1628 160.459 38.1829 157.08C31.1526 154.917 21.3894 156.102 15.2764 157.233C17.3185 161.79 19.6156 166.2 22.1483 170.444C26.1489 170.625 31.94 171.548 37.4883 174.824C47.3411 180.642 58.9764 194.061 69.0175 202.037C76.7341 208.167 85.3379 210.307 90.1428 210.5L90.1427 210.5Z" fill="url(#paint2_linear_193_1795)"/>
<path fill-rule="evenodd" clip-rule="evenodd" d="M65.3976 180.541C70.5887 187.866 78.9597 202.358 90.1425 210.5C93.7168 213.103 97.578 215.056 101.715 215.92C105.787 216.77 109.38 217.27 112.492 217.539C104.606 214.384 97.872 206.808 86.8858 190.184C80.1121 179.935 67.5255 159.794 54.7034 139.058C52.3371 138.521 49.7538 138.07 46.9372 137.737C28.1862 135.515 15.5139 141.879 10.5415 145.036C11.9192 149.204 13.502 153.274 15.2761 157.233C21.3891 156.101 31.1524 154.917 38.1827 157.08C49.1625 160.458 58.5475 170.875 65.3975 180.541L65.3976 180.541Z" fill="url(#paint3_linear_193_1795)"/>
<path fill-rule="evenodd" clip-rule="evenodd" d="M162.253 191.204C158.894 196.577 154.777 202.639 149.931 207.769C153.428 209.171 159.85 211.034 169.424 210.724C179.278 210.404 196.507 204.02 206.473 199.99C218.108 189.62 227.835 177.028 235.037 162.852C231.328 162.758 226.302 163.047 220.157 164.37C206.126 167.392 190.476 176.135 178.387 183.906C172.127 187.93 166.359 190.073 162.253 191.204L162.253 191.204Z" fill="url(#paint4_linear_193_1795)"/>
<path fill-rule="evenodd" clip-rule="evenodd" d="M162.253 191.204C166.359 190.072 172.127 187.929 178.387 183.905C190.476 176.134 206.126 167.391 220.158 164.369C226.302 163.046 231.328 162.758 235.037 162.851C238.083 156.856 240.677 150.579 242.773 144.065C229.705 137.06 211.329 140.946 203.319 146.01C196.744 150.167 185.776 158.239 179.791 162.706C172.845 173.906 167.559 182.465 165.684 185.58C164.646 187.304 163.502 189.206 162.253 191.204Z" fill="url(#paint5_linear_193_1795)"/>
<path fill-rule="evenodd" clip-rule="evenodd" d="M54.7035 139.058C51.0736 133.188 47.4245 127.27 43.8835 121.515C38.783 117.195 31.3154 111.927 23.6127 110.182C16.463 108.562 9.34165 109.197 4.13379 110.187C4.69013 122.329 6.90156 134.025 10.5416 145.036C15.5139 141.879 28.1863 135.515 46.9373 137.737C49.7538 138.07 52.3371 138.521 54.7035 139.058Z" fill="url(#paint6_linear_193_1795)"/>
<path fill-rule="evenodd" clip-rule="evenodd" d="M4 102.91C7.7553 102.346 13.1204 101.593 19.5256 100.839C13.8075 95.9555 8.88427 86.8744 6.0504 80.894C4.76803 88.04 4.06765 95.3961 4 102.91Z" fill="url(#paint7_linear_193_1795)"/>
<path fill-rule="evenodd" clip-rule="evenodd" d="M104.544 115.263L133.963 159.812C136.117 156.263 138.585 152.194 141.28 147.753C139.532 143.814 136.362 138.568 130.624 132.774C118.38 120.413 104.544 115.263 104.544 115.263Z" fill="url(#paint8_linear_193_1795)"/>
<path fill-rule="evenodd" clip-rule="evenodd" d="M218.233 122.96C218.233 122.96 227.723 135.862 246.057 131.82C247.835 123.599 248.838 115.075 248.985 106.336C244.415 114.517 234.164 128.538 222.311 116.774L218.233 122.96V122.96Z" fill="url(#paint9_linear_193_1795)"/>
<path fill-rule="evenodd" clip-rule="evenodd" d="M222.311 116.774C234.164 128.538 244.415 114.517 248.985 106.336C248.997 105.594 249.003 104.85 249.003 104.105C249.003 95.7643 248.222 87.6119 246.732 79.7222L222.311 116.774V116.774Z" fill="url(#paint10_linear_193_1795)"/>
<path fill-rule="evenodd" clip-rule="evenodd" d="M117.999 92.3345C90.4746 79.3159 88.2798 59.5063 95.3581 42.0188C102.644 24.0196 132.07 12.1636 155.068 29.1624C171.913 41.6125 169.678 59.5804 167.163 69.1464C168.645 66.8167 169.988 64.1086 171.123 60.9754C179.993 36.5014 166.36 8.90746 141.229 2.17348C116.099 -4.5605 84.0698 3.81566 61.4028 34.8592C64.852 59.3324 84.4984 93.1845 112.064 111.465C132.391 124.947 147.75 126.312 154.412 126.099C159.794 117.222 165.451 107.888 170.95 98.8096C149.403 104.973 125.544 95.654 120.482 93.4604C119.882 93.2004 119.22 92.8489 118.524 92.4056C118.314 92.417 118.133 92.3984 117.999 92.3346L117.999 92.3345Z" fill="url(#paint11_linear_193_1795)"/>
<path fill-rule="evenodd" clip-rule="evenodd" d="M101.562 53.4263C104.991 38.1408 126.133 29.9986 141.704 35.5695C155.854 40.6322 162.454 55.1324 160.86 76.3892C163.098 74.5376 165.247 72.1569 167.163 69.1461C169.678 59.5797 171.913 41.6122 155.068 29.1621C132.07 12.1633 102.644 24.0193 95.3583 42.0185C88.28 59.5061 90.4748 79.3157 118 92.3342C118.134 92.3981 118.314 92.4166 118.524 92.4053C114.471 89.8257 109.237 84.139 108.114 75.301C103.812 69.3653 99.792 61.3202 101.562 53.4262V53.4263Z" fill="url(#paint12_linear_193_1795)"/>
<path fill-rule="evenodd" clip-rule="evenodd" d="M141.704 35.5699C126.134 29.9989 104.991 38.1412 101.562 53.4267C99.7921 61.3207 103.812 69.3658 108.114 75.3015C107.617 71.3916 107.925 66.8652 109.495 61.7179C115.224 42.9352 144.713 39.6477 149.878 55.9893C155.043 72.3304 141.52 76.2747 138.766 79.2073C140.159 82.573 151.309 84.2987 160.861 76.3897C162.454 55.1328 155.854 40.6327 141.704 35.57V35.5699Z" fill="url(#paint13_linear_193_1795)"/>
<path fill-rule="evenodd" clip-rule="evenodd" d="M154.412 126.099C149.535 126.255 139.998 125.565 127.262 119.896C129.835 122.052 133.919 125.473 139.244 129.933C144.108 134.007 146.54 136.051 147.756 137.077C149.903 133.536 152.133 129.858 154.412 126.099H154.412Z" fill="url(#paint14_linear_193_1795)"/>
<path fill-rule="evenodd" clip-rule="evenodd" d="M0.168084 268.025C0.168084 268.025 10.0682 294.368 10.4662 295.483C10.8638 296.601 11.122 297.782 12.7411 297.772C14.3621 297.764 17.1057 297.764 17.7218 297.764C18.3371 297.764 19.039 297.66 19.714 295.701C20.3886 293.741 29.8809 268.75 30.1696 268.024C30.458 267.297 30.4074 266.394 28.9564 266.403C27.5039 266.413 25.8829 266.403 25.0983 266.403C24.3118 266.403 23.6564 266.702 23.0683 268.349C22.4825 269.998 15.1638 289.459 15.1638 289.459C15.1638 289.459 7.36659 268.598 7.09825 267.909C6.82991 267.22 6.38842 266.425 5.0365 266.402C3.6857 266.377 1.89419 266.393 1.15872 266.418C0.422473 266.441 -0.348164 266.912 0.168084 268.025V268.025ZM230.821 266.061C237.356 266.061 246.079 266.122 252.605 266.122C253.255 266.122 253.786 266.701 253.786 267.408V271.63C253.786 272.336 253.254 272.916 252.605 272.916H248.146H239.324H236.391C236.202 272.916 236.047 273.084 236.047 273.29V278.8C236.047 279.006 236.202 279.175 236.391 279.175H248.59C249.194 279.175 249.688 279.713 249.688 280.371V284.299C249.688 284.957 249.194 285.496 248.59 285.496H236.391C236.202 285.496 236.047 285.665 236.047 285.87V291.38C236.047 291.586 236.202 291.755 236.391 291.755C240.982 291.755 247.894 291.494 252.605 291.494C253.255 291.494 253.786 292.073 253.786 292.78V297.002C253.786 297.708 253.255 298.288 252.605 298.288C246.123 298.288 237.368 298.483 230.821 298.483C230.215 298.483 229.718 297.944 229.718 297.282V267.263C229.718 266.601 230.215 266.061 230.821 266.061V266.061ZM162.381 297.76C162.381 297.76 159.477 297.76 158.536 297.76C157.595 297.76 156.902 297.587 157.556 295.819C158.208 294.051 167.571 268.967 168.006 267.954C168.44 266.942 168.654 266.636 170.587 266.6C172.518 266.564 174.889 266.642 175.61 266.624C176.331 266.607 177.143 266.638 177.776 268.582C178.41 270.528 187.56 294.902 187.837 295.579C188.114 296.255 188.836 297.738 187.249 297.757C185.661 297.775 182.784 297.741 181.998 297.717C181.213 297.692 180.72 297.612 180.404 296.54C180.09 295.467 179.376 293.215 179.231 292.742C179.087 292.27 178.935 292.011 178.17 292.045C177.404 292.08 168.022 292.048 167.248 292.04C166.474 292.032 166.405 292.355 166.064 293.377C165.722 294.4 165.114 296.342 165.018 296.65C164.922 296.958 164.806 297.864 162.381 297.76H162.381ZM167.914 286.517H177.604L172.634 272.854L167.914 286.517H167.914ZM191.309 268.103C191.309 268.103 201.467 294.899 201.875 296.033C202.284 297.17 202.548 298.372 204.21 298.362C205.874 298.353 208.689 298.353 209.321 298.353C209.953 298.353 210.672 298.247 211.365 296.255C212.057 294.262 221.797 268.841 222.093 268.102C222.389 267.363 222.338 266.445 220.849 266.454C219.358 266.464 217.695 266.454 216.889 266.454C216.083 266.454 215.41 266.758 214.807 268.433C214.205 270.11 206.696 289.906 206.696 289.906C206.696 289.906 198.696 268.687 198.421 267.986C198.145 267.285 197.692 266.476 196.306 266.452C194.92 266.427 193.081 266.444 192.325 266.468C191.571 266.492 190.78 266.972 191.309 268.103L191.309 268.103ZM130.57 279.513C132.603 285.217 136.125 295.111 136.372 295.906C136.721 297.03 136.947 298.217 138.37 298.207C139.792 298.199 142.199 298.199 142.739 298.199C143.28 298.199 143.894 298.094 144.488 296.125C145.08 294.156 153.409 269.034 153.662 268.304C153.914 267.575 153.871 266.666 152.597 266.675C151.323 266.685 149.901 266.675 149.211 266.675C148.522 266.675 147.946 266.976 147.431 268.631C146.916 270.289 140.495 289.851 140.495 289.851C140.495 289.851 133.654 268.882 133.418 268.189C133.182 267.496 132.795 266.698 131.61 266.674C130.829 266.656 130.06 266.677 129.285 266.675C128.595 266.675 128.02 266.976 127.504 268.631C126.99 270.289 120.568 289.851 120.568 289.851C120.568 289.851 113.727 268.882 113.49 268.189C113.255 267.496 112.868 266.698 111.683 266.674C110.497 266.649 108.924 266.666 108.279 266.69C107.634 266.714 106.957 267.187 107.41 268.305C107.41 268.305 116.097 294.784 116.446 295.906C116.795 297.03 117.021 298.217 118.443 298.207C119.865 298.199 122.272 298.199 122.813 298.199C123.353 298.199 123.968 298.093 124.561 296.125C124.89 295.029 128.086 286.755 130.57 279.513H130.57ZM75.1074 266C74.5413 266 74.0798 266.518 74.0798 267.151V291.143V297.06V297.109C74.0798 297.743 74.5413 298.261 75.1074 298.261H75.1513H78.8688H79.2807C79.8707 298.261 80.3526 297.72 80.3526 297.06V292.313C80.3908 286.252 80.4086 278.484 80.4086 278.484C85.1179 283.365 90.8344 291.409 96.7089 297.606C97.3231 298.255 97.1882 298.123 98.0375 298.161L100.262 298.261C100.826 298.286 101.289 297.743 101.289 297.109V273.186V267.151V267.132L101.289 267.121C101.283 266.507 100.837 266.006 100.288 266H100.28H100.262H96.7007H96.3908C95.8355 266 95.3812 266.509 95.3812 267.132V269.45C95.379 269.476 95.3774 269.505 95.3771 269.535C95.3275 275.688 95.3034 285.77 95.3034 285.77C89.6053 278.997 84.5378 272.666 78.3987 266.704C77.6889 266.013 77.8707 266 76.9462 266H75.1075H75.1074ZM40.5705 266.061C47.1064 266.061 55.8288 266.122 62.3549 266.122C63.005 266.122 63.536 266.701 63.536 267.408V271.63C63.536 272.336 63.0043 272.916 62.3549 272.916H57.8966H49.0744H46.1411C45.9518 272.916 45.7965 273.084 45.7965 273.29V278.8C45.7965 279.006 45.9518 279.175 46.1411 279.175H58.3399C58.9443 279.175 59.4383 279.713 59.4383 280.371V284.299C59.4383 284.957 58.9443 285.496 58.3399 285.496H46.1411C45.9518 285.496 45.7965 285.665 45.7965 285.87V291.38C45.7965 291.586 45.9518 291.755 46.1411 291.755C50.7325 291.755 57.6441 291.494 62.3549 291.494C63.005 291.494 63.536 292.073 63.536 292.78V297.002C63.536 297.708 63.005 298.288 62.3549 298.288C55.873 298.288 47.1177 298.483 40.5705 298.483C39.965 298.483 39.4684 297.944 39.4684 297.282V267.263C39.4684 266.601 39.965 266.061 40.5705 266.061V266.061Z" fill="url(#paint15_linear_193_1795)"/>
<defs>
<linearGradient id="paint0_linear_193_1795" x1="125.472" y1="31.3279" x2="127.74" y2="219.877" gradientUnits="userSpaceOnUse">
<stop stop-color="#80F74D"/>
<stop offset="1" stop-color="#00B254"/>
</linearGradient>
<linearGradient id="paint1_linear_193_1795" x1="32.3675" y1="179.079" x2="182.447" y2="216.738" gradientUnits="userSpaceOnUse">
<stop stop-color="#0B1D29"/>
<stop offset="1" stop-color="#002E40"/>
</linearGradient>
<linearGradient id="paint2_linear_193_1795" x1="15.2763" y1="157.233" x2="83.2726" y2="206.806" gradientUnits="userSpaceOnUse">
<stop stop-color="#0B707A"/>
<stop offset="1" stop-color="#0B2C3F"/>
</linearGradient>
<linearGradient id="paint3_linear_193_1795" x1="10.5415" y1="145.036" x2="106.212" y2="213.897" gradientUnits="userSpaceOnUse">
<stop stop-color="#52EDE5"/>
<stop offset="1" stop-color="#11848B"/>
</linearGradient>
<linearGradient id="paint4_linear_193_1795" x1="149.931" y1="207.769" x2="234.184" y2="170.066" gradientUnits="userSpaceOnUse">
<stop stop-color="#00575C"/>
<stop offset="1" stop-color="#1CDDC8"/>
</linearGradient>
<linearGradient id="paint5_linear_193_1795" x1="242.773" y1="144.065" x2="165.684" y2="185.58" gradientUnits="userSpaceOnUse">
<stop stop-color="#27FAE7"/>
<stop offset="1" stop-color="#08D2C6"/>
</linearGradient>
<linearGradient id="paint6_linear_193_1795" x1="4.32088" y1="113.415" x2="52.5965" y2="135.648" gradientUnits="userSpaceOnUse">
<stop stop-color="#2BF48C"/>
<stop offset="1" stop-color="#0ADF8B"/>
</linearGradient>
<linearGradient id="paint7_linear_193_1795" x1="11.7544" y1="101.813" x2="5.34967" y2="85.2178" gradientUnits="userSpaceOnUse">
<stop stop-color="#124D53"/>
<stop offset="1" stop-color="#006E68"/>
</linearGradient>
<linearGradient id="paint8_linear_193_1795" x1="135.996" y1="156.462" x2="97.4998" y2="108" gradientUnits="userSpaceOnUse">
<stop stop-color="#0F2E4B"/>
<stop offset="0.476532" stop-color="#054C4F"/>
<stop offset="1" stop-color="#13E1BE"/>
</linearGradient>
<linearGradient id="paint9_linear_193_1795" x1="218.233" y1="122.96" x2="247.076" y2="126.592" gradientUnits="userSpaceOnUse">
<stop stop-color="#006F6B"/>
<stop offset="1" stop-color="#01A79B"/>
</linearGradient>
<linearGradient id="paint10_linear_193_1795" x1="222.311" y1="116.774" x2="248.742" y2="95.77" gradientUnits="userSpaceOnUse">
<stop stop-color="#10D377"/>
<stop offset="1" stop-color="#64F78C"/>
</linearGradient>
<linearGradient id="paint11_linear_193_1795" x1="70.2409" y1="24.337" x2="156.014" y2="123.457" gradientUnits="userSpaceOnUse">
<stop stop-color="#51F18F"/>
<stop offset="0.168627" stop-color="#3CF389"/>
<stop offset="0.529412" stop-color="#14E1BA"/>
<stop offset="1" stop-color="#12E1C3"/>
</linearGradient>
<linearGradient id="paint12_linear_193_1795" x1="130.203" y1="25.1989" x2="125.181" y2="95.2997" gradientUnits="userSpaceOnUse">
<stop stop-color="#1EF6D1"/>
<stop offset="1" stop-color="#005A54"/>
</linearGradient>
<linearGradient id="paint13_linear_193_1795" x1="135.015" y1="37.8857" x2="125.181" y2="76.3825" gradientUnits="userSpaceOnUse">
<stop stop-color="#13DEC0"/>
<stop offset="1" stop-color="#0C5661"/>
</linearGradient>
<linearGradient id="paint14_linear_193_1795" x1="149.202" y1="134.691" x2="130.496" y2="121.258" gradientUnits="userSpaceOnUse">
<stop stop-color="#046667"/>
<stop offset="1" stop-color="#335B65"/>
</linearGradient>
<linearGradient id="paint15_linear_193_1795" x1="1.61754" y1="271.884" x2="249.688" y2="280.371" gradientUnits="userSpaceOnUse">
<stop stop-color="#05CC79"/>
<stop offset="0.521569" stop-color="#0DC251"/>
<stop offset="1" stop-color="#51E14E"/>
</linearGradient>
</defs>
</svg>
