<svg width="50" height="50" viewBox="0 0 50 50" fill="none" xmlns="http://www.w3.org/2000/svg">
<path d="M40 22.5H32.05C31 19.6 28.25 17.5 25 17.5C21.75 17.5 19 19.6 17.95 22.5H10C9.175 22.5 5 22.25 5 17.5V15C5 10.425 8.85 10 10 10H35.45C36.5 12.9 39.25 15 42.5 15C44.4891 15 46.3968 14.2098 47.8033 12.8033C49.2098 11.3968 50 9.48912 50 7.5C50 5.51088 49.2098 3.60322 47.8033 2.1967C46.3968 0.790177 44.4891 0 42.5 0C39.25 0 36.5 2.1 35.45 5H10C5.975 5 0 7.65 0 15V17.5C0 24.85 5.975 27.5 10 27.5H17.95C19 30.4 21.75 32.5 25 32.5C28.25 32.5 31 30.4 32.05 27.5H40C40.825 27.5 45 27.75 45 32.5V35C45 39.575 41.15 40 40 40H14.55C13.5 37.1 10.75 35 7.5 35C5.51088 35 3.60322 35.7902 2.1967 37.1967C0.790177 38.6032 0 40.5109 0 42.5C0 44.4891 0.790177 46.3968 2.1967 47.8033C3.60322 49.2098 5.51088 50 7.5 50C10.75 50 13.5 47.9 14.55 45H40C44.025 45 50 42.325 50 35V32.5C50 25.175 44.025 22.5 40 22.5ZM42.5 5C43.163 5 43.7989 5.26339 44.2678 5.73223C44.7366 6.20107 45 6.83696 45 7.5C45 8.16304 44.7366 8.79893 44.2678 9.26777C43.7989 9.73661 43.163 10 42.5 10C41.837 10 41.2011 9.73661 40.7322 9.26777C40.2634 8.79893 40 8.16304 40 7.5C40 6.83696 40.2634 6.20107 40.7322 5.73223C41.2011 5.26339 41.837 5 42.5 5ZM7.5 45C6.83696 45 6.20107 44.7366 5.73223 44.2678C5.26339 43.7989 5 43.163 5 42.5C5 41.837 5.26339 41.2011 5.73223 40.7322C6.20107 40.2634 6.83696 40 7.5 40C8.16304 40 8.79893 40.2634 9.26777 40.7322C9.73661 41.2011 10 41.837 10 42.5C10 43.163 9.73661 43.7989 9.26777 44.2678C8.79893 44.7366 8.16304 45 7.5 45Z" fill="black"/>
</svg>
