<svg width="60" height="51" viewBox="0 0 60 51" fill="none" xmlns="http://www.w3.org/2000/svg">
<path d="M18.0015 24.002C21.1844 24.002 24.2369 22.7376 26.4875 20.487C28.7381 18.2364 30.0025 15.1839 30.0025 12.001C30.0025 8.81814 28.7381 5.76564 26.4875 3.51501C24.2369 1.26439 21.1844 0 18.0015 0C14.8186 0 11.7661 1.26439 9.51552 3.51501C7.26489 5.76564 6.0005 8.81814 6.0005 12.001C6.0005 15.1839 7.26489 18.2364 9.51552 20.487C11.7661 22.7376 14.8186 24.002 18.0015 24.002ZM45.0038 24.002C47.3909 24.002 49.6803 23.0537 51.3683 21.3657C53.0562 19.6778 54.0045 17.3884 54.0045 15.0013C54.0045 12.6141 53.0562 10.3247 51.3683 8.63676C49.6803 6.94879 47.3909 6.0005 45.0038 6.0005C42.6166 6.0005 40.3272 6.94879 38.6393 8.63676C36.9513 10.3247 36.003 12.6141 36.003 15.0013C36.003 17.3884 36.9513 19.6778 38.6393 21.3657C40.3272 23.0537 42.6166 24.002 45.0038 24.002ZM7.50063 30.0025C3.36028 30.0025 0 33.3628 0 37.5031C0 37.5031 0 51.0043 18.0015 51.0043C32.2707 51.0043 35.229 42.5196 35.841 39.0033C36.003 38.0852 36.003 37.5031 36.003 37.5031C36.003 33.3628 32.6427 30.0025 28.5024 30.0025H7.50063ZM41.9795 39.6033C41.9675 39.8433 41.9435 40.1274 41.9075 40.4554C41.5764 42.9295 40.7169 45.3034 39.3873 47.416C40.9774 47.782 42.8316 48.004 44.9978 48.004C59.999 48.004 59.999 37.5031 59.999 37.5031C59.999 33.3628 56.6387 30.0025 52.4984 30.0025H39.7233C41.1634 32.1507 41.9975 34.7249 41.9975 37.5031V39.0033L41.9795 39.6033Z" fill="black"/>
</svg>
