<svg width="72" height="49" viewBox="0 0 72 49" fill="none" xmlns="http://www.w3.org/2000/svg">
<path d="M70.8002 16.6781L63.6949 2.4619C63.4331 1.93865 63.0709 1.47209 62.6288 1.08886C62.1867 0.705633 61.6735 0.41324 61.1184 0.228381C60.5633 0.0435218 59.9772 -0.0301815 59.3936 0.0114801C58.8101 0.0531417 58.2404 0.209353 57.7172 0.471191L50.7929 3.93197L36.2064 0.0730486C35.8321 -0.0243495 35.4391 -0.0243495 35.0648 0.0730486L20.4784 3.93197L13.554 0.471191C13.0308 0.209353 12.4612 0.0531417 11.8776 0.0114801C11.294 -0.0301815 10.7079 0.0435218 10.1528 0.228381C9.59775 0.41324 9.0845 0.705633 8.64242 1.08886C8.20034 1.47209 7.83808 1.93865 7.57633 2.4619L0.471019 16.6753C0.209181 17.1985 0.0529704 17.7682 0.0113088 18.3517C-0.0303528 18.9353 0.0433504 19.5214 0.228209 20.0765C0.413068 20.6316 0.705462 21.1448 1.08869 21.5869C1.47192 22.029 1.93848 22.3912 2.46173 22.653L9.9791 26.4145L25.4287 37.4483C25.6565 37.61 25.9123 37.7281 26.1832 37.7963L44.0022 42.2511C44.3753 42.3447 44.7664 42.34 45.1372 42.2375C45.508 42.1351 45.846 41.9383 46.1182 41.6664L57.255 30.5295L61.4536 26.3309L68.8095 22.653C69.8655 22.1244 70.6684 21.198 71.0417 20.0776C71.415 18.9572 71.3281 17.7345 70.8002 16.6781ZM55.5177 25.969L45.9372 18.2957C45.508 17.952 44.9668 17.7792 44.4179 17.8105C43.8689 17.8419 43.3509 18.0752 42.9637 18.4655C38.005 23.4604 32.4783 22.8284 28.9535 20.601L40.9924 8.90735H49.849L57.4249 24.0562L55.5177 25.969ZM43.8602 37.6237L27.6783 33.5783L13.98 23.7945L21.7758 8.20295L35.6356 4.53057L38.3641 5.25168L25.8352 17.4131L25.8129 17.4382C25.3413 17.9098 24.9816 18.4813 24.7603 19.1105C24.5391 19.7398 24.462 20.4106 24.5347 21.0736C24.6074 21.7367 24.828 22.3749 25.1803 22.9412C25.5326 23.5076 26.0076 23.9876 26.5702 24.3458C32.2946 28.0015 39.2022 27.4084 44.6425 22.9537L52.3409 29.1374L43.8602 37.6237ZM36.6992 47.3128C36.5788 47.7942 36.3012 48.2216 35.9103 48.5273C35.5194 48.8329 35.0376 48.9993 34.5414 49C34.3584 49.0001 34.176 48.9777 33.9985 48.9332L22.3856 46.0292C22.1142 45.9622 21.8581 45.8441 21.631 45.6812L14.2946 40.4413C13.8435 40.0872 13.5464 39.5726 13.4652 39.0049C13.384 38.4371 13.5249 37.8599 13.8586 37.3935C14.1923 36.927 14.6931 36.6073 15.2566 36.5008C15.8202 36.3943 16.4031 36.5093 16.8839 36.8219L23.8751 41.8167L35.0788 44.6121C35.6517 44.7554 36.1443 45.1204 36.4482 45.6269C36.7521 46.1334 36.8423 46.7398 36.6992 47.3128Z" fill="black"/>
</svg>
