<svg width="48" height="48" viewBox="0 0 48 48" fill="none" xmlns="http://www.w3.org/2000/svg">
<g clip-path="url(#clip0_40_173)">
<g clip-path="url(#clip1_40_173)">
<g clip-path="url(#clip2_40_173)">
<path d="M48 24C48 10.7452 37.2548 0 24 0C10.7452 0 0 10.7452 0 24C0 37.2548 10.7452 48 24 48C37.2548 48 48 37.2548 48 24Z" fill="white"/>
<mask id="mask0_40_173" style="mask-type:luminance" maskUnits="userSpaceOnUse" x="10" y="10" width="28" height="28">
<path d="M38 10H10V38H38V10Z" fill="white"/>
</mask>
<g mask="url(#mask0_40_173)">
<path d="M24 38C31.732 38 38 31.732 38 24C38 16.268 31.732 10 24 10C16.268 10 10 16.268 10 24C10 31.732 16.268 38 24 38Z" fill="#2DAAE1"/>
<path d="M33.8516 19.306C33.1913 19.599 32.482 19.7971 31.7363 19.8861C32.4974 19.4304 33.0804 18.7082 33.3557 17.8487C32.6327 18.2781 31.8415 18.5804 31.0164 18.7424C30.3449 18.0267 29.3874 17.5798 28.3281 17.5798C26.2947 17.5798 24.6457 19.2282 24.6457 21.2628C24.6457 21.551 24.6781 21.8323 24.7405 22.1023C21.6796 21.9485 18.9659 20.4822 17.1495 18.2543C16.8323 18.7984 16.6507 19.4311 16.6507 20.1061C16.6507 21.3837 17.301 22.5109 18.2891 23.1712C17.7042 23.1531 17.1321 22.9952 16.6206 22.7107V22.7573C16.6206 24.5419 17.89 26.0299 19.5749 26.3683C19.2654 26.4531 18.9405 26.4974 18.6045 26.4974C18.3669 26.4974 18.1364 26.4749 17.9112 26.4326C18.3799 27.8953 19.74 28.96 21.3512 28.9901C20.0907 29.9782 18.5025 30.5672 16.7775 30.5672C16.4804 30.5672 16.1867 30.5494 15.8984 30.5147C17.5286 31.56 19.4641 32.1702 21.544 32.1702C28.318 32.1702 32.0228 26.5582 32.0228 21.6914C32.0228 21.5316 32.0193 21.373 32.0116 21.215C32.7334 20.6929 33.3564 20.0465 33.8516 19.306Z" fill="white"/>
</g>
</g>
</g>
</g>
<defs>
<clipPath id="clip0_40_173">
<rect width="48" height="48" fill="white"/>
</clipPath>
<clipPath id="clip1_40_173">
<rect width="48" height="48" fill="white"/>
</clipPath>
<clipPath id="clip2_40_173">
<rect width="48" height="48" fill="white"/>
</clipPath>
</defs>
</svg>
