<svg width="1440" height="961" viewBox="0 0 1440 961" fill="none" xmlns="http://www.w3.org/2000/svg">
<rect width="1440" height="961" fill="white"/>
<path fill-rule="evenodd" clip-rule="evenodd" d="M200.552 144.378C200.552 144.378 255.945 235.365 273.277 261.591C290.609 287.817 297.358 291.525 314.741 290.877C332.123 290.229 344.749 269.154 352.075 256.987C359.4 244.819 418.779 149.578 425.732 138.403C432.685 127.229 435.292 115.557 425.111 106.369C414.93 97.1803 399.037 100.781 390.097 115.929C381.157 131.078 311.484 245.832 311.484 245.832C311.484 245.832 235.435 121.008 230.74 113.685C226.045 106.361 214.214 96.5952 199.566 105.14C184.918 113.685 191.867 133.591 200.552 144.378V144.378Z" fill="url(#paint0_linear_1_2)"/>
<path fill-rule="evenodd" clip-rule="evenodd" d="M299.492 288.539C296.38 288.271 292.787 287.77 288.715 286.921C284.578 286.057 280.717 284.103 277.143 281.5C272.338 281.307 263.734 279.167 256.017 273.037C245.976 265.061 234.341 251.642 224.488 245.824C218.94 242.548 213.149 241.625 209.148 241.444C230.717 277.587 269.385 301.679 313.499 301.679C344.063 301.679 372.012 290.115 393.473 270.989C383.507 275.02 366.279 281.404 356.425 281.724C346.851 282.034 340.429 280.171 336.931 278.769C330.861 285.197 323.647 290.161 315.349 290.471C308.985 290.708 304.046 290.361 299.492 288.539L299.492 288.539Z" fill="url(#paint1_linear_1_2)"/>
<path fill-rule="evenodd" clip-rule="evenodd" d="M277.143 281.5C265.96 273.358 257.589 258.867 252.398 251.542C245.548 241.875 236.163 231.459 225.183 228.081C218.153 225.918 208.389 227.102 202.276 228.233C204.318 232.79 206.616 237.2 209.148 241.444C213.149 241.625 218.94 242.548 224.488 245.824C234.341 251.642 245.976 265.061 256.017 273.037C263.734 279.167 272.338 281.307 277.143 281.5L277.143 281.5Z" fill="url(#paint2_linear_1_2)"/>
<path fill-rule="evenodd" clip-rule="evenodd" d="M252.398 251.542C257.589 258.867 265.96 273.358 277.143 281.5C280.717 284.103 284.578 286.057 288.716 286.921C292.787 287.77 296.38 288.271 299.492 288.539C291.606 285.384 284.872 277.808 273.886 261.185C267.112 250.935 254.526 230.794 241.704 210.058C239.337 209.521 236.754 209.07 233.937 208.737C215.186 206.516 202.514 212.88 197.542 216.036C198.919 220.204 200.502 224.274 202.276 228.233C208.389 227.102 218.152 225.917 225.183 228.08C236.163 231.459 245.548 241.875 252.398 251.541L252.398 251.542Z" fill="url(#paint3_linear_1_2)"/>
<path fill-rule="evenodd" clip-rule="evenodd" d="M349.253 262.204C345.894 267.577 341.777 273.639 336.931 278.769C340.428 280.171 346.85 282.034 356.425 281.724C366.279 281.404 383.507 275.02 393.473 270.989C405.108 260.62 414.835 248.028 422.038 233.851C418.328 233.758 413.302 234.046 407.158 235.37C393.126 238.391 377.476 247.135 365.387 254.906C359.127 258.93 353.359 261.073 349.253 262.204L349.253 262.204Z" fill="url(#paint4_linear_1_2)"/>
<path fill-rule="evenodd" clip-rule="evenodd" d="M349.253 262.204C353.359 261.073 359.127 258.93 365.387 254.906C377.476 247.135 393.126 238.391 407.158 235.37C413.302 234.046 418.328 233.758 422.037 233.851C425.083 227.857 427.677 221.579 429.773 215.066C416.705 208.061 398.329 211.946 390.319 217.01C383.744 221.167 372.776 229.24 366.791 233.706C359.845 244.906 354.559 253.466 352.684 256.58C351.646 258.304 350.502 260.206 349.253 262.204Z" fill="url(#paint5_linear_1_2)"/>
<path fill-rule="evenodd" clip-rule="evenodd" d="M241.703 210.058C238.074 204.188 234.424 198.27 230.883 192.515C225.783 188.195 218.315 182.928 210.613 181.183C203.463 179.562 196.342 180.197 191.134 181.187C191.69 193.33 193.901 205.025 197.542 216.036C202.514 212.88 215.186 206.516 233.937 208.737C236.754 209.07 239.337 209.521 241.703 210.058Z" fill="url(#paint6_linear_1_2)"/>
<path fill-rule="evenodd" clip-rule="evenodd" d="M191 173.91C194.755 173.346 200.12 172.593 206.526 171.839C200.808 166.956 195.884 157.875 193.05 151.894C191.768 159.04 191.068 166.396 191 173.91Z" fill="url(#paint7_linear_1_2)"/>
<path fill-rule="evenodd" clip-rule="evenodd" d="M291.544 186.263L320.963 230.812C323.117 227.263 325.586 223.194 328.28 218.753C326.532 214.814 323.362 209.568 317.624 203.774C305.381 191.413 291.544 186.263 291.544 186.263Z" fill="url(#paint8_linear_1_2)"/>
<path fill-rule="evenodd" clip-rule="evenodd" d="M405.233 193.96C405.233 193.96 414.723 206.862 433.058 202.82C434.835 194.599 435.839 186.075 435.985 177.336C431.415 185.517 421.164 199.538 409.311 187.774L405.233 193.96V193.96Z" fill="url(#paint9_linear_1_2)"/>
<path fill-rule="evenodd" clip-rule="evenodd" d="M409.311 187.774C421.164 199.538 431.415 185.517 435.985 177.336C435.997 176.594 436.003 175.85 436.003 175.105C436.003 166.764 435.222 158.612 433.732 150.722L409.311 187.774V187.774Z" fill="url(#paint10_linear_1_2)"/>
<path fill-rule="evenodd" clip-rule="evenodd" d="M305 163.335C277.475 150.316 275.28 130.506 282.358 113.019C289.644 95.0196 319.07 83.1636 342.068 100.162C358.913 112.613 356.678 130.58 354.163 140.146C355.645 137.817 356.988 135.109 358.124 131.975C366.994 107.501 353.36 79.9075 328.23 73.1735C303.099 66.4395 271.07 74.8157 248.403 105.859C251.852 130.332 271.499 164.184 299.064 182.465C319.392 195.947 334.751 197.312 341.412 197.099C346.794 188.222 352.451 178.888 357.95 169.81C336.403 175.973 312.544 166.654 307.483 164.46C306.883 164.2 306.221 163.849 305.524 163.406C305.314 163.417 305.134 163.398 304.999 163.335L305 163.335Z" fill="url(#paint11_linear_1_2)"/>
<path fill-rule="evenodd" clip-rule="evenodd" d="M288.562 124.427C291.991 109.141 313.133 100.999 328.704 106.57C342.854 111.632 349.454 126.133 347.86 147.389C350.098 145.538 352.247 143.157 354.163 140.146C356.678 130.58 358.913 112.612 342.068 100.162C319.07 83.1635 289.644 95.0195 282.358 113.019C275.28 130.506 277.475 150.316 305 163.334C305.134 163.398 305.314 163.417 305.524 163.405C301.471 160.826 296.237 155.139 295.114 146.301C290.812 140.366 286.792 132.32 288.562 124.426V124.427Z" fill="url(#paint12_linear_1_2)"/>
<path fill-rule="evenodd" clip-rule="evenodd" d="M328.704 106.57C313.134 100.999 291.991 109.141 288.562 124.427C286.792 132.32 290.812 140.366 295.114 146.301C294.617 142.391 294.925 137.865 296.495 132.718C302.224 113.935 331.713 110.648 336.878 126.989C342.043 143.33 328.52 147.275 325.766 150.207C327.159 153.573 338.309 155.299 347.861 147.389C349.454 126.133 342.854 111.633 328.704 106.57V106.57Z" fill="url(#paint13_linear_1_2)"/>
<path fill-rule="evenodd" clip-rule="evenodd" d="M341.412 197.099C336.535 197.255 326.998 196.565 314.262 190.896C316.835 193.052 320.919 196.473 326.244 200.933C331.107 205.007 333.54 207.051 334.756 208.077C336.903 204.536 339.133 200.858 341.412 197.099H341.412Z" fill="url(#paint14_linear_1_2)"/>
<path fill-rule="evenodd" clip-rule="evenodd" d="M187.168 339.025C187.168 339.025 197.068 365.368 197.466 366.483C197.864 367.601 198.122 368.782 199.741 368.772C201.362 368.764 204.106 368.764 204.722 368.764C205.337 368.764 206.039 368.66 206.714 366.701C207.389 364.741 216.881 339.75 217.17 339.024C217.458 338.297 217.407 337.394 215.956 337.403C214.504 337.413 212.883 337.403 212.098 337.403C211.312 337.403 210.656 337.702 210.068 339.349C209.483 340.998 202.164 360.459 202.164 360.459C202.164 360.459 194.367 339.598 194.098 338.909C193.83 338.22 193.388 337.425 192.036 337.402C190.686 337.377 188.894 337.393 188.159 337.418C187.422 337.441 186.652 337.912 187.168 339.025V339.025ZM417.821 337.061C424.356 337.061 433.079 337.122 439.605 337.122C440.255 337.122 440.786 337.701 440.786 338.408V342.63C440.786 343.336 440.254 343.916 439.605 343.916H435.146H426.324H423.391C423.202 343.916 423.047 344.084 423.047 344.29V349.8C423.047 350.006 423.202 350.175 423.391 350.175H435.59C436.194 350.175 436.688 350.713 436.688 351.371V355.299C436.688 355.957 436.194 356.496 435.59 356.496H423.391C423.202 356.496 423.047 356.665 423.047 356.87V362.38C423.047 362.586 423.202 362.755 423.391 362.755C427.982 362.755 434.894 362.494 439.605 362.494C440.255 362.494 440.786 363.073 440.786 363.78V368.002C440.786 368.708 440.255 369.288 439.605 369.288C433.123 369.288 424.368 369.483 417.821 369.483C417.215 369.483 416.718 368.944 416.718 368.282V338.263C416.718 337.601 417.215 337.061 417.821 337.061V337.061ZM349.381 368.76C349.381 368.76 346.477 368.76 345.536 368.76C344.595 368.76 343.902 368.587 344.556 366.819C345.208 365.051 354.571 339.967 355.006 338.954C355.44 337.942 355.654 337.636 357.587 337.6C359.518 337.564 361.889 337.642 362.61 337.624C363.331 337.607 364.143 337.638 364.776 339.582C365.41 341.528 374.56 365.902 374.837 366.579C375.114 367.255 375.836 368.738 374.249 368.757C372.661 368.775 369.784 368.741 368.998 368.717C368.213 368.692 367.72 368.612 367.404 367.54C367.09 366.467 366.376 364.215 366.231 363.742C366.087 363.27 365.935 363.011 365.17 363.045C364.404 363.08 355.022 363.048 354.248 363.04C353.474 363.032 353.405 363.355 353.064 364.377C352.722 365.4 352.114 367.342 352.018 367.65C351.922 367.958 351.806 368.864 349.381 368.76H349.381ZM354.914 357.517H364.604L359.634 343.854L354.914 357.517H354.914ZM378.309 339.103C378.309 339.103 388.467 365.899 388.875 367.033C389.284 368.17 389.548 369.372 391.21 369.362C392.874 369.353 395.689 369.353 396.321 369.353C396.953 369.353 397.672 369.247 398.365 367.255C399.057 365.262 408.797 339.841 409.093 339.102C409.389 338.363 409.338 337.445 407.849 337.454C406.358 337.464 404.695 337.454 403.889 337.454C403.083 337.454 402.41 337.758 401.807 339.433C401.205 341.11 393.696 360.906 393.696 360.906C393.696 360.906 385.696 339.687 385.421 338.986C385.145 338.285 384.692 337.476 383.306 337.452C381.92 337.427 380.081 337.444 379.325 337.468C378.571 337.492 377.78 337.972 378.309 339.103L378.309 339.103ZM317.57 350.513C319.603 356.217 323.125 366.111 323.372 366.906C323.721 368.03 323.947 369.217 325.37 369.207C326.792 369.199 329.199 369.199 329.739 369.199C330.28 369.199 330.894 369.094 331.488 367.125C332.08 365.156 340.409 340.034 340.662 339.304C340.914 338.575 340.871 337.666 339.597 337.675C338.323 337.685 336.901 337.675 336.211 337.675C335.522 337.675 334.946 337.976 334.431 339.631C333.916 341.289 327.495 360.851 327.495 360.851C327.495 360.851 320.654 339.882 320.418 339.189C320.182 338.496 319.795 337.698 318.61 337.674C317.829 337.656 317.06 337.677 316.285 337.675C315.595 337.675 315.02 337.976 314.504 339.631C313.99 341.289 307.568 360.851 307.568 360.851C307.568 360.851 300.727 339.882 300.49 339.189C300.255 338.496 299.868 337.698 298.683 337.674C297.497 337.649 295.924 337.666 295.279 337.69C294.634 337.714 293.957 338.187 294.41 339.305C294.41 339.305 303.097 365.784 303.446 366.906C303.795 368.03 304.021 369.217 305.443 369.207C306.865 369.199 309.272 369.199 309.813 369.199C310.353 369.199 310.968 369.093 311.561 367.125C311.89 366.029 315.086 357.755 317.57 350.513H317.57ZM262.107 337C261.541 337 261.08 337.518 261.08 338.151V362.143V368.06V368.109C261.08 368.743 261.541 369.261 262.107 369.261H262.151H265.869H266.281C266.871 369.261 267.353 368.72 267.353 368.06V363.313C267.391 357.252 267.409 349.484 267.409 349.484C272.118 354.365 277.834 362.409 283.709 368.606C284.323 369.255 284.188 369.123 285.037 369.161L287.262 369.261C287.826 369.286 288.289 368.743 288.289 368.109V344.186V338.151V338.132L288.289 338.121C288.283 337.507 287.837 337.006 287.288 337H287.28H287.262H283.701H283.391C282.836 337 282.381 337.509 282.381 338.132V340.45C282.379 340.476 282.377 340.505 282.377 340.535C282.328 346.688 282.303 356.77 282.303 356.77C276.605 349.997 271.538 343.666 265.399 337.704C264.689 337.013 264.871 337 263.946 337H262.107H262.107ZM227.57 337.061C234.106 337.061 242.829 337.122 249.355 337.122C250.005 337.122 250.536 337.701 250.536 338.408V342.63C250.536 343.336 250.004 343.916 249.355 343.916H244.897H236.074H233.141C232.952 343.916 232.796 344.084 232.796 344.29V349.8C232.796 350.006 232.952 350.175 233.141 350.175H245.34C245.944 350.175 246.438 350.713 246.438 351.371V355.299C246.438 355.957 245.944 356.496 245.34 356.496H233.141C232.952 356.496 232.796 356.665 232.796 356.87V362.38C232.796 362.586 232.952 362.755 233.141 362.755C237.733 362.755 244.644 362.494 249.355 362.494C250.005 362.494 250.536 363.073 250.536 363.78V368.002C250.536 368.708 250.005 369.288 249.355 369.288C242.873 369.288 234.118 369.483 227.57 369.483C226.965 369.483 226.468 368.944 226.468 368.282V338.263C226.468 337.601 226.965 337.061 227.57 337.061V337.061Z" fill="url(#paint15_linear_1_2)"/>
<path fill-rule="evenodd" clip-rule="evenodd" d="M132.011 533.489C132.011 533.489 161.066 581.216 170.157 594.972C179.249 608.729 182.789 610.674 191.907 610.334C201.024 609.994 207.647 598.94 211.49 592.557C215.332 586.175 246.479 536.217 250.126 530.356C253.773 524.494 255.14 518.372 249.8 513.552C244.46 508.733 236.123 510.621 231.434 518.567C226.744 526.513 190.199 586.706 190.199 586.706C190.199 586.706 150.308 521.231 147.845 517.39C145.382 513.548 139.177 508.426 131.493 512.908C123.81 517.39 127.455 527.831 132.011 533.49V533.489Z" fill="url(#paint16_linear_1_2)"/>
<path fill-rule="evenodd" clip-rule="evenodd" d="M183.908 609.107C182.276 608.967 180.391 608.704 178.255 608.259C176.085 607.805 174.06 606.781 172.185 605.415C169.665 605.314 165.152 604.191 161.104 600.976C155.837 596.793 149.734 589.754 144.566 586.702C141.655 584.983 138.618 584.499 136.519 584.404C147.833 603.363 168.116 616 191.255 616C207.287 616 221.948 609.934 233.205 599.902C227.977 602.016 218.94 605.365 213.771 605.533C208.75 605.695 205.381 604.718 203.546 603.983C200.362 607.354 196.578 609.958 192.226 610.121C188.888 610.245 186.297 610.063 183.908 609.107L183.908 609.107Z" fill="url(#paint17_linear_1_2)"/>
<path fill-rule="evenodd" clip-rule="evenodd" d="M172.185 605.415C166.319 601.145 161.928 593.543 159.205 589.701C155.612 584.631 150.69 579.167 144.93 577.395C141.243 576.26 136.121 576.881 132.915 577.475C133.986 579.865 135.191 582.178 136.519 584.404C138.618 584.499 141.655 584.983 144.566 586.702C149.734 589.754 155.837 596.793 161.104 600.976C165.152 604.192 169.665 605.314 172.185 605.416L172.185 605.415Z" fill="url(#paint18_linear_1_2)"/>
<path fill-rule="evenodd" clip-rule="evenodd" d="M159.205 589.701C161.928 593.543 166.319 601.144 172.185 605.415C174.06 606.781 176.085 607.805 178.256 608.259C180.391 608.704 182.276 608.967 183.908 609.107C179.772 607.453 176.24 603.479 170.477 594.759C166.924 589.383 160.322 578.818 153.596 567.941C152.355 567.66 151 567.423 149.522 567.248C139.687 566.083 133.04 569.421 130.431 571.077C131.154 573.263 131.984 575.398 132.915 577.475C136.121 576.881 141.243 576.26 144.93 577.395C150.69 579.167 155.612 584.631 159.205 589.701L159.205 589.701Z" fill="url(#paint19_linear_1_2)"/>
<path fill-rule="evenodd" clip-rule="evenodd" d="M210.01 595.294C208.248 598.112 206.088 601.292 203.547 603.983C205.381 604.718 208.749 605.696 213.771 605.533C218.94 605.365 227.977 602.016 233.205 599.902C239.308 594.463 244.41 587.858 248.188 580.422C246.242 580.373 243.606 580.524 240.383 581.218C233.023 582.803 224.814 587.389 218.473 591.466C215.189 593.576 212.164 594.7 210.01 595.294L210.01 595.294Z" fill="url(#paint20_linear_1_2)"/>
<path fill-rule="evenodd" clip-rule="evenodd" d="M210.01 595.294C212.164 594.7 215.189 593.576 218.473 591.465C224.814 587.389 233.023 582.803 240.383 581.218C243.606 580.524 246.242 580.373 248.188 580.422C249.786 577.277 251.146 573.984 252.245 570.568C245.391 566.893 235.752 568.932 231.551 571.588C228.101 573.768 222.348 578.003 219.209 580.345C215.566 586.22 212.793 590.71 211.809 592.344C211.265 593.248 210.665 594.246 210.01 595.294Z" fill="url(#paint21_linear_1_2)"/>
<path fill-rule="evenodd" clip-rule="evenodd" d="M153.596 567.941C151.692 564.862 149.778 561.758 147.92 558.739C145.245 556.473 141.328 553.71 137.288 552.795C133.537 551.945 129.802 552.278 127.07 552.797C127.362 559.167 128.522 565.301 130.431 571.077C133.039 569.421 139.687 566.083 149.522 567.248C151 567.423 152.355 567.66 153.596 567.941Z" fill="url(#paint22_linear_1_2)"/>
<path fill-rule="evenodd" clip-rule="evenodd" d="M127 548.98C128.97 548.685 131.784 548.289 135.144 547.894C132.144 545.332 129.562 540.569 128.076 537.432C127.403 541.18 127.035 545.039 127 548.98Z" fill="url(#paint23_linear_1_2)"/>
<path fill-rule="evenodd" clip-rule="evenodd" d="M179.739 555.46L195.171 578.827C196.3 576.966 197.595 574.832 199.009 572.502C198.092 570.436 196.429 567.684 193.419 564.645C186.997 558.161 179.739 555.46 179.739 555.46Z" fill="url(#paint24_linear_1_2)"/>
<path fill-rule="evenodd" clip-rule="evenodd" d="M239.373 559.497C239.373 559.497 244.351 566.265 253.968 564.145C254.901 559.832 255.427 555.361 255.504 550.777C253.107 555.069 247.73 562.423 241.512 556.252L239.373 559.497V559.497Z" fill="url(#paint25_linear_1_2)"/>
<path fill-rule="evenodd" clip-rule="evenodd" d="M241.512 556.252C247.73 562.423 253.107 555.069 255.504 550.777C255.51 550.388 255.514 549.998 255.514 549.607C255.514 545.232 255.104 540.956 254.322 536.817L241.512 556.252V556.252Z" fill="url(#paint26_linear_1_2)"/>
<path fill-rule="evenodd" clip-rule="evenodd" d="M186.797 543.433C172.359 536.604 171.208 526.213 174.921 517.04C178.742 507.599 194.178 501.38 206.241 510.297C215.077 516.827 213.904 526.252 212.585 531.27C213.363 530.048 214.067 528.627 214.663 526.984C219.315 514.146 212.164 499.672 198.982 496.14C185.8 492.608 169 497.001 157.11 513.285C158.919 526.122 169.225 543.879 183.684 553.468C194.346 560.54 202.403 561.255 205.897 561.144C208.72 556.488 211.687 551.591 214.572 546.829C203.269 550.062 190.755 545.174 188.1 544.024C187.785 543.887 187.438 543.703 187.072 543.47C186.962 543.476 186.867 543.466 186.797 543.433L186.797 543.433Z" fill="url(#paint27_linear_1_2)"/>
<path fill-rule="evenodd" clip-rule="evenodd" d="M178.175 523.024C179.974 515.006 191.064 510.736 199.231 513.658C206.653 516.313 210.115 523.919 209.279 535.069C210.453 534.098 211.58 532.849 212.585 531.27C213.904 526.252 215.077 516.827 206.241 510.297C194.178 501.38 178.742 507.599 174.921 517.04C171.208 526.213 172.359 536.604 186.797 543.433C186.867 543.466 186.962 543.476 187.072 543.47C184.946 542.117 182.201 539.134 181.612 534.498C179.355 531.385 177.247 527.165 178.175 523.024V523.024Z" fill="url(#paint28_linear_1_2)"/>
<path fill-rule="evenodd" clip-rule="evenodd" d="M199.231 513.658C191.064 510.735 179.974 515.006 178.175 523.024C177.247 527.165 179.355 531.385 181.612 534.498C181.351 532.448 181.512 530.073 182.336 527.373C185.341 517.521 200.809 515.797 203.518 524.368C206.228 532.94 199.134 535.009 197.69 536.547C198.42 538.313 204.269 539.218 209.279 535.069C210.115 523.919 206.653 516.313 199.231 513.658V513.658Z" fill="url(#paint29_linear_1_2)"/>
<path fill-rule="evenodd" clip-rule="evenodd" d="M205.897 561.144C203.339 561.225 198.336 560.864 191.656 557.89C193.005 559.021 195.147 560.815 197.94 563.155C200.492 565.292 201.768 566.364 202.405 566.902C203.532 565.044 204.702 563.116 205.897 561.144H205.897Z" fill="url(#paint30_linear_1_2)"/>
<path fill-rule="evenodd" clip-rule="evenodd" d="M272.168 547.025C272.168 547.025 282.068 573.368 282.466 574.483C282.864 575.601 283.122 576.782 284.741 576.772C286.362 576.764 289.106 576.764 289.722 576.764C290.337 576.764 291.039 576.66 291.714 574.701C292.389 572.741 301.881 547.75 302.17 547.024C302.458 546.297 302.407 545.394 300.956 545.403C299.504 545.413 297.883 545.403 297.098 545.403C296.312 545.403 295.656 545.702 295.068 547.349C294.483 548.998 287.164 568.459 287.164 568.459C287.164 568.459 279.367 547.598 279.098 546.909C278.83 546.22 278.388 545.425 277.036 545.402C275.686 545.377 273.894 545.393 273.159 545.418C272.422 545.441 271.652 545.912 272.168 547.025V547.025ZM502.821 545.061C509.356 545.061 518.079 545.122 524.605 545.122C525.255 545.122 525.786 545.701 525.786 546.408V550.63C525.786 551.336 525.254 551.916 524.605 551.916H520.146H511.324H508.391C508.202 551.916 508.047 552.084 508.047 552.29V557.8C508.047 558.006 508.202 558.175 508.391 558.175H520.59C521.194 558.175 521.688 558.713 521.688 559.371V563.299C521.688 563.957 521.194 564.496 520.59 564.496H508.391C508.202 564.496 508.047 564.665 508.047 564.87V570.38C508.047 570.586 508.202 570.755 508.391 570.755C512.982 570.755 519.894 570.494 524.605 570.494C525.255 570.494 525.786 571.073 525.786 571.78V576.002C525.786 576.708 525.255 577.288 524.605 577.288C518.123 577.288 509.368 577.483 502.821 577.483C502.215 577.483 501.718 576.944 501.718 576.282V546.263C501.718 545.601 502.215 545.061 502.821 545.061V545.061ZM434.381 576.76C434.381 576.76 431.477 576.76 430.536 576.76C429.595 576.76 428.902 576.587 429.556 574.819C430.208 573.051 439.571 547.967 440.006 546.954C440.44 545.942 440.654 545.636 442.587 545.6C444.518 545.564 446.889 545.642 447.61 545.624C448.331 545.607 449.143 545.638 449.776 547.582C450.41 549.528 459.56 573.902 459.837 574.579C460.114 575.255 460.836 576.738 459.249 576.757C457.661 576.775 454.784 576.741 453.998 576.717C453.213 576.692 452.72 576.612 452.404 575.54C452.09 574.467 451.376 572.215 451.231 571.742C451.087 571.27 450.935 571.011 450.17 571.045C449.404 571.08 440.022 571.048 439.248 571.04C438.474 571.032 438.405 571.355 438.064 572.377C437.722 573.4 437.114 575.342 437.018 575.65C436.922 575.958 436.806 576.864 434.381 576.76H434.381ZM439.914 565.517H449.604L444.634 551.854L439.914 565.517H439.914ZM463.309 547.103C463.309 547.103 473.467 573.899 473.875 575.033C474.284 576.17 474.548 577.372 476.21 577.362C477.874 577.353 480.689 577.353 481.321 577.353C481.953 577.353 482.672 577.247 483.365 575.255C484.057 573.262 493.797 547.841 494.093 547.102C494.389 546.363 494.338 545.445 492.849 545.454C491.358 545.464 489.695 545.454 488.889 545.454C488.083 545.454 487.41 545.758 486.807 547.433C486.205 549.11 478.696 568.906 478.696 568.906C478.696 568.906 470.696 547.687 470.421 546.986C470.145 546.285 469.692 545.476 468.306 545.452C466.92 545.427 465.081 545.444 464.325 545.468C463.571 545.492 462.78 545.972 463.309 547.103L463.309 547.103ZM402.57 558.513C404.603 564.217 408.125 574.111 408.372 574.906C408.721 576.03 408.947 577.217 410.37 577.207C411.792 577.199 414.199 577.199 414.739 577.199C415.28 577.199 415.894 577.094 416.488 575.125C417.08 573.156 425.409 548.034 425.662 547.304C425.914 546.575 425.871 545.666 424.597 545.675C423.323 545.685 421.901 545.675 421.211 545.675C420.522 545.675 419.946 545.976 419.431 547.631C418.916 549.289 412.495 568.851 412.495 568.851C412.495 568.851 405.654 547.882 405.418 547.189C405.182 546.496 404.795 545.698 403.61 545.674C402.829 545.656 402.06 545.677 401.285 545.675C400.595 545.675 400.02 545.976 399.504 547.631C398.99 549.289 392.568 568.851 392.568 568.851C392.568 568.851 385.727 547.882 385.49 547.189C385.255 546.496 384.868 545.698 383.683 545.674C382.497 545.649 380.924 545.666 380.279 545.69C379.634 545.714 378.957 546.187 379.41 547.305C379.41 547.305 388.097 573.784 388.446 574.906C388.795 576.03 389.021 577.217 390.443 577.207C391.865 577.199 394.272 577.199 394.813 577.199C395.353 577.199 395.968 577.093 396.561 575.125C396.89 574.029 400.086 565.755 402.57 558.513H402.57ZM347.107 545C346.541 545 346.08 545.518 346.08 546.151V570.143V576.06V576.109C346.08 576.743 346.541 577.261 347.107 577.261H347.151H350.869H351.281C351.871 577.261 352.353 576.72 352.353 576.06V571.313C352.391 565.252 352.409 557.484 352.409 557.484C357.118 562.365 362.834 570.409 368.709 576.606C369.323 577.255 369.188 577.123 370.037 577.161L372.262 577.261C372.826 577.286 373.289 576.743 373.289 576.109V552.186V546.151V546.132L373.289 546.121C373.283 545.507 372.837 545.006 372.288 545H372.28H372.262H368.701H368.391C367.836 545 367.381 545.509 367.381 546.132V548.45C367.379 548.476 367.377 548.505 367.377 548.535C367.328 554.688 367.303 564.77 367.303 564.77C361.605 557.997 356.538 551.666 350.399 545.704C349.689 545.013 349.871 545 348.946 545H347.107H347.107ZM312.57 545.061C319.106 545.061 327.829 545.122 334.355 545.122C335.005 545.122 335.536 545.701 335.536 546.408V550.63C335.536 551.336 335.004 551.916 334.355 551.916H329.897H321.074H318.141C317.952 551.916 317.796 552.084 317.796 552.29V557.8C317.796 558.006 317.952 558.175 318.141 558.175H330.34C330.944 558.175 331.438 558.713 331.438 559.371V563.299C331.438 563.957 330.944 564.496 330.34 564.496H318.141C317.952 564.496 317.796 564.665 317.796 564.87V570.38C317.796 570.586 317.952 570.755 318.141 570.755C322.733 570.755 329.644 570.494 334.355 570.494C335.005 570.494 335.536 571.073 335.536 571.78V576.002C335.536 576.708 335.005 577.288 334.355 577.288C327.873 577.288 319.118 577.483 312.57 577.483C311.965 577.483 311.468 576.944 311.468 576.282V546.263C311.468 545.601 311.965 545.061 312.57 545.061V545.061Z" fill="url(#paint31_linear_1_2)"/>
<rect x="691" width="749" height="961" fill="black"/>
<path fill-rule="evenodd" clip-rule="evenodd" d="M952.552 160.378C952.552 160.378 1007.95 251.365 1025.28 277.591C1042.61 303.817 1049.36 307.525 1066.74 306.877C1084.12 306.229 1096.75 285.154 1104.07 272.987C1111.4 260.819 1170.78 165.578 1177.73 154.403C1184.69 143.229 1187.29 131.557 1177.11 122.369C1166.93 113.18 1151.04 116.781 1142.1 131.929C1133.16 147.078 1063.48 261.832 1063.48 261.832C1063.48 261.832 987.435 137.008 982.74 129.685C978.045 122.361 966.214 112.595 951.566 121.14C936.918 129.685 943.867 149.591 952.552 160.378V160.378Z" fill="url(#paint32_linear_1_2)"/>
<path fill-rule="evenodd" clip-rule="evenodd" d="M1051.49 304.539C1048.38 304.271 1044.79 303.77 1040.72 302.921C1036.58 302.057 1032.72 300.103 1029.14 297.5C1024.34 297.307 1015.73 295.167 1008.02 289.037C997.976 281.061 986.341 267.642 976.488 261.824C970.94 258.548 965.149 257.625 961.148 257.444C982.717 293.587 1021.39 317.679 1065.5 317.679C1096.06 317.679 1124.01 306.115 1145.47 286.989C1135.51 291.02 1118.28 297.404 1108.42 297.724C1098.85 298.034 1092.43 296.171 1088.93 294.769C1082.86 301.197 1075.65 306.161 1067.35 306.471C1060.99 306.708 1056.05 306.361 1051.49 304.539L1051.49 304.539Z" fill="url(#paint33_linear_1_2)"/>
<path fill-rule="evenodd" clip-rule="evenodd" d="M1029.14 297.5C1017.96 289.358 1009.59 274.867 1004.4 267.542C997.548 257.875 988.163 247.459 977.183 244.081C970.153 241.918 960.389 243.102 954.276 244.233C956.318 248.79 958.616 253.2 961.148 257.444C965.149 257.625 970.94 258.548 976.488 261.824C986.341 267.642 997.976 281.061 1008.02 289.037C1015.73 295.167 1024.34 297.307 1029.14 297.5L1029.14 297.5Z" fill="url(#paint34_linear_1_2)"/>
<path fill-rule="evenodd" clip-rule="evenodd" d="M1004.4 267.542C1009.59 274.867 1017.96 289.358 1029.14 297.5C1032.72 300.103 1036.58 302.057 1040.72 302.921C1044.79 303.77 1048.38 304.271 1051.49 304.539C1043.61 301.384 1036.87 293.808 1025.89 277.185C1019.11 266.935 1006.53 246.794 993.704 226.058C991.337 225.521 988.754 225.07 985.937 224.737C967.186 222.516 954.514 228.88 949.542 232.036C950.919 236.204 952.502 240.274 954.276 244.233C960.389 243.102 970.152 241.917 977.183 244.08C988.163 247.459 997.548 257.875 1004.4 267.541L1004.4 267.542Z" fill="url(#paint35_linear_1_2)"/>
<path fill-rule="evenodd" clip-rule="evenodd" d="M1101.25 278.204C1097.89 283.577 1093.78 289.639 1088.93 294.769C1092.43 296.171 1098.85 298.034 1108.42 297.724C1118.28 297.404 1135.51 291.02 1145.47 286.989C1157.11 276.62 1166.84 264.028 1174.04 249.851C1170.33 249.758 1165.3 250.046 1159.16 251.37C1145.13 254.391 1129.48 263.135 1117.39 270.906C1111.13 274.93 1105.36 277.073 1101.25 278.204L1101.25 278.204Z" fill="url(#paint36_linear_1_2)"/>
<path fill-rule="evenodd" clip-rule="evenodd" d="M1101.25 278.204C1105.36 277.073 1111.13 274.93 1117.39 270.906C1129.48 263.135 1145.13 254.391 1159.16 251.37C1165.3 250.046 1170.33 249.758 1174.04 249.851C1177.08 243.857 1179.68 237.579 1181.77 231.066C1168.71 224.061 1150.33 227.946 1142.32 233.01C1135.74 237.167 1124.78 245.24 1118.79 249.706C1111.85 260.906 1106.56 269.466 1104.68 272.58C1103.65 274.304 1102.5 276.206 1101.25 278.204Z" fill="url(#paint37_linear_1_2)"/>
<path fill-rule="evenodd" clip-rule="evenodd" d="M993.704 226.058C990.074 220.188 986.425 214.27 982.883 208.515C977.783 204.195 970.315 198.928 962.613 197.183C955.463 195.562 948.342 196.197 943.134 197.187C943.69 209.33 945.902 221.025 949.542 232.036C954.514 228.88 967.186 222.516 985.937 224.737C988.754 225.07 991.337 225.521 993.704 226.058Z" fill="url(#paint38_linear_1_2)"/>
<path fill-rule="evenodd" clip-rule="evenodd" d="M943 189.91C946.755 189.346 952.12 188.593 958.526 187.839C952.808 182.956 947.884 173.875 945.05 167.894C943.768 175.04 943.068 182.396 943 189.91Z" fill="url(#paint39_linear_1_2)"/>
<path fill-rule="evenodd" clip-rule="evenodd" d="M1043.54 202.263L1072.96 246.812C1075.12 243.263 1077.59 239.194 1080.28 234.753C1078.53 230.814 1075.36 225.568 1069.62 219.774C1057.38 207.413 1043.54 202.263 1043.54 202.263Z" fill="url(#paint40_linear_1_2)"/>
<path fill-rule="evenodd" clip-rule="evenodd" d="M1157.23 209.96C1157.23 209.96 1166.72 222.862 1185.06 218.82C1186.84 210.599 1187.84 202.075 1187.98 193.336C1183.42 201.517 1173.16 215.538 1161.31 203.774L1157.23 209.96V209.96Z" fill="url(#paint41_linear_1_2)"/>
<path fill-rule="evenodd" clip-rule="evenodd" d="M1161.31 203.774C1173.16 215.538 1183.42 201.517 1187.98 193.336C1188 192.594 1188 191.85 1188 191.105C1188 182.764 1187.22 174.612 1185.73 166.722L1161.31 203.774V203.774Z" fill="url(#paint42_linear_1_2)"/>
<path fill-rule="evenodd" clip-rule="evenodd" d="M1057 179.335C1029.47 166.316 1027.28 146.506 1034.36 129.019C1041.64 111.02 1071.07 99.1636 1094.07 116.162C1110.91 128.613 1108.68 146.58 1106.16 156.146C1107.65 153.817 1108.99 151.109 1110.12 147.975C1118.99 123.501 1105.36 95.9075 1080.23 89.1735C1055.1 82.4395 1023.07 90.8157 1000.4 121.859C1003.85 146.332 1023.5 180.184 1051.06 198.465C1071.39 211.947 1086.75 213.312 1093.41 213.099C1098.79 204.222 1104.45 194.888 1109.95 185.81C1088.4 191.973 1064.54 182.654 1059.48 180.46C1058.88 180.2 1058.22 179.849 1057.52 179.406C1057.31 179.417 1057.13 179.398 1057 179.335L1057 179.335Z" fill="url(#paint43_linear_1_2)"/>
<path fill-rule="evenodd" clip-rule="evenodd" d="M1040.56 140.427C1043.99 125.141 1065.13 116.999 1080.7 122.57C1094.85 127.632 1101.45 142.133 1099.86 163.389C1102.1 161.538 1104.25 159.157 1106.16 156.146C1108.68 146.58 1110.91 128.612 1094.07 116.162C1071.07 99.1635 1041.64 111.02 1034.36 129.019C1027.28 146.506 1029.47 166.316 1057 179.334C1057.13 179.398 1057.31 179.417 1057.52 179.405C1053.47 176.826 1048.24 171.139 1047.11 162.301C1042.81 156.366 1038.79 148.32 1040.56 140.426V140.427Z" fill="url(#paint44_linear_1_2)"/>
<path fill-rule="evenodd" clip-rule="evenodd" d="M1080.7 122.57C1065.13 116.999 1043.99 125.141 1040.56 140.427C1038.79 148.32 1042.81 156.366 1047.11 162.301C1046.62 158.391 1046.92 153.865 1048.49 148.718C1054.22 129.935 1083.71 126.648 1088.88 142.989C1094.04 159.33 1080.52 163.275 1077.77 166.207C1079.16 169.573 1090.31 171.299 1099.86 163.389C1101.45 142.133 1094.85 127.633 1080.7 122.57V122.57Z" fill="url(#paint45_linear_1_2)"/>
<path fill-rule="evenodd" clip-rule="evenodd" d="M1093.41 213.099C1088.54 213.255 1079 212.565 1066.26 206.896C1068.84 209.052 1072.92 212.473 1078.24 216.933C1083.11 221.007 1085.54 223.051 1086.76 224.077C1088.9 220.536 1091.13 216.858 1093.41 213.099H1093.41Z" fill="url(#paint46_linear_1_2)"/>
<path fill-rule="evenodd" clip-rule="evenodd" d="M939.168 355.025C939.168 355.025 949.068 381.368 949.466 382.483C949.864 383.601 950.122 384.782 951.741 384.772C953.362 384.764 956.106 384.764 956.722 384.764C957.337 384.764 958.039 384.66 958.714 382.701C959.389 380.741 968.881 355.75 969.17 355.024C969.458 354.297 969.407 353.394 967.956 353.403C966.504 353.413 964.883 353.403 964.098 353.403C963.312 353.403 962.656 353.702 962.068 355.349C961.483 356.998 954.164 376.459 954.164 376.459C954.164 376.459 946.367 355.598 946.098 354.909C945.83 354.22 945.388 353.425 944.036 353.402C942.686 353.377 940.894 353.393 940.159 353.418C939.422 353.441 938.652 353.912 939.168 355.025V355.025ZM1169.82 353.061C1176.36 353.061 1185.08 353.122 1191.61 353.122C1192.25 353.122 1192.79 353.701 1192.79 354.408V358.63C1192.79 359.336 1192.25 359.916 1191.61 359.916H1187.15H1178.32H1175.39C1175.2 359.916 1175.05 360.084 1175.05 360.29V365.8C1175.05 366.006 1175.2 366.175 1175.39 366.175H1187.59C1188.19 366.175 1188.69 366.713 1188.69 367.371V371.299C1188.69 371.957 1188.19 372.496 1187.59 372.496H1175.39C1175.2 372.496 1175.05 372.665 1175.05 372.87V378.38C1175.05 378.586 1175.2 378.755 1175.39 378.755C1179.98 378.755 1186.89 378.494 1191.61 378.494C1192.25 378.494 1192.79 379.073 1192.79 379.78V384.002C1192.79 384.708 1192.25 385.288 1191.61 385.288C1185.12 385.288 1176.37 385.483 1169.82 385.483C1169.21 385.483 1168.72 384.944 1168.72 384.282V354.263C1168.72 353.601 1169.21 353.061 1169.82 353.061V353.061ZM1101.38 384.76C1101.38 384.76 1098.48 384.76 1097.54 384.76C1096.59 384.76 1095.9 384.587 1096.56 382.819C1097.21 381.051 1106.57 355.967 1107.01 354.954C1107.44 353.942 1107.65 353.636 1109.59 353.6C1111.52 353.564 1113.89 353.642 1114.61 353.624C1115.33 353.607 1116.14 353.638 1116.78 355.582C1117.41 357.528 1126.56 381.902 1126.84 382.579C1127.11 383.255 1127.84 384.738 1126.25 384.757C1124.66 384.775 1121.78 384.741 1121 384.717C1120.21 384.692 1119.72 384.612 1119.4 383.54C1119.09 382.467 1118.38 380.215 1118.23 379.742C1118.09 379.27 1117.93 379.011 1117.17 379.045C1116.4 379.08 1107.02 379.048 1106.25 379.04C1105.47 379.032 1105.41 379.355 1105.06 380.377C1104.72 381.4 1104.11 383.342 1104.02 383.65C1103.92 383.958 1103.81 384.864 1101.38 384.76H1101.38ZM1106.91 373.517H1116.6L1111.63 359.854L1106.91 373.517H1106.91ZM1130.31 355.103C1130.31 355.103 1140.47 381.899 1140.88 383.033C1141.28 384.17 1141.55 385.372 1143.21 385.362C1144.87 385.353 1147.69 385.353 1148.32 385.353C1148.95 385.353 1149.67 385.247 1150.37 383.255C1151.06 381.262 1160.8 355.841 1161.09 355.102C1161.39 354.363 1161.34 353.445 1159.85 353.454C1158.36 353.464 1156.7 353.454 1155.89 353.454C1155.08 353.454 1154.41 353.758 1153.81 355.433C1153.21 357.11 1145.7 376.906 1145.7 376.906C1145.7 376.906 1137.7 355.687 1137.42 354.986C1137.15 354.285 1136.69 353.476 1135.31 353.452C1133.92 353.427 1132.08 353.444 1131.33 353.468C1130.57 353.492 1129.78 353.972 1130.31 355.103L1130.31 355.103ZM1069.57 366.513C1071.6 372.217 1075.12 382.111 1075.37 382.906C1075.72 384.03 1075.95 385.217 1077.37 385.207C1078.79 385.199 1081.2 385.199 1081.74 385.199C1082.28 385.199 1082.89 385.094 1083.49 383.125C1084.08 381.156 1092.41 356.034 1092.66 355.304C1092.91 354.575 1092.87 353.666 1091.6 353.675C1090.32 353.685 1088.9 353.675 1088.21 353.675C1087.52 353.675 1086.95 353.976 1086.43 355.631C1085.92 357.289 1079.49 376.851 1079.49 376.851C1079.49 376.851 1072.65 355.882 1072.42 355.189C1072.18 354.496 1071.79 353.698 1070.61 353.674C1069.83 353.656 1069.06 353.677 1068.28 353.675C1067.6 353.675 1067.02 353.976 1066.5 355.631C1065.99 357.289 1059.57 376.851 1059.57 376.851C1059.57 376.851 1052.73 355.882 1052.49 355.189C1052.26 354.496 1051.87 353.698 1050.68 353.674C1049.5 353.649 1047.92 353.666 1047.28 353.69C1046.63 353.714 1045.96 354.187 1046.41 355.305C1046.41 355.305 1055.1 381.784 1055.45 382.906C1055.79 384.03 1056.02 385.217 1057.44 385.207C1058.86 385.199 1061.27 385.199 1061.81 385.199C1062.35 385.199 1062.97 385.093 1063.56 383.125C1063.89 382.029 1067.09 373.755 1069.57 366.513H1069.57ZM1014.11 353C1013.54 353 1013.08 353.518 1013.08 354.151V378.143V384.06V384.109C1013.08 384.743 1013.54 385.261 1014.11 385.261H1014.15H1017.87H1018.28C1018.87 385.261 1019.35 384.72 1019.35 384.06V379.313C1019.39 373.252 1019.41 365.484 1019.41 365.484C1024.12 370.365 1029.83 378.409 1035.71 384.606C1036.32 385.255 1036.19 385.123 1037.04 385.161L1039.26 385.261C1039.83 385.286 1040.29 384.743 1040.29 384.109V360.186V354.151V354.132L1040.29 354.121C1040.28 353.507 1039.84 353.006 1039.29 353H1039.28H1039.26H1035.7H1035.39C1034.84 353 1034.38 353.509 1034.38 354.132V356.45C1034.38 356.476 1034.38 356.505 1034.38 356.535C1034.33 362.688 1034.3 372.77 1034.3 372.77C1028.61 365.997 1023.54 359.666 1017.4 353.704C1016.69 353.013 1016.87 353 1015.95 353H1014.11H1014.11ZM979.57 353.061C986.106 353.061 994.829 353.122 1001.35 353.122C1002 353.122 1002.54 353.701 1002.54 354.408V358.63C1002.54 359.336 1002 359.916 1001.35 359.916H996.897H988.074H985.141C984.952 359.916 984.796 360.084 984.796 360.29V365.8C984.796 366.006 984.952 366.175 985.141 366.175H997.34C997.944 366.175 998.438 366.713 998.438 367.371V371.299C998.438 371.957 997.944 372.496 997.34 372.496H985.141C984.952 372.496 984.796 372.665 984.796 372.87V378.38C984.796 378.586 984.952 378.755 985.141 378.755C989.733 378.755 996.644 378.494 1001.35 378.494C1002 378.494 1002.54 379.073 1002.54 379.78V384.002C1002.54 384.708 1002 385.288 1001.35 385.288C994.873 385.288 986.118 385.483 979.57 385.483C978.965 385.483 978.468 384.944 978.468 384.282V354.263C978.468 353.601 978.965 353.061 979.57 353.061V353.061Z" fill="url(#paint47_linear_1_2)"/>
<path fill-rule="evenodd" clip-rule="evenodd" d="M863.011 529.489C863.011 529.489 892.066 577.216 901.157 590.972C910.249 604.729 913.789 606.674 922.907 606.334C932.024 605.994 938.647 594.94 942.49 588.557C946.332 582.175 977.479 532.217 981.126 526.356C984.773 520.494 986.14 514.372 980.8 509.552C975.46 504.733 967.123 506.621 962.434 514.567C957.744 522.513 921.199 582.706 921.199 582.706C921.199 582.706 881.308 517.231 878.845 513.39C876.382 509.548 870.177 504.426 862.493 508.908C854.81 513.39 858.455 523.831 863.011 529.49V529.489Z" fill="url(#paint48_linear_1_2)"/>
<path fill-rule="evenodd" clip-rule="evenodd" d="M914.908 605.107C913.276 604.967 911.391 604.704 909.256 604.259C907.085 603.805 905.06 602.781 903.185 601.415C900.665 601.314 896.152 600.191 892.104 596.976C886.837 592.793 880.734 585.754 875.566 582.702C872.655 580.983 869.618 580.499 867.519 580.404C878.833 599.363 899.116 612 922.255 612C938.287 612 952.948 605.934 964.205 595.902C958.977 598.016 949.94 601.365 944.772 601.533C939.75 601.695 936.381 600.718 934.547 599.983C931.362 603.354 927.578 605.958 923.226 606.121C919.888 606.245 917.297 606.063 914.908 605.107L914.908 605.107Z" fill="url(#paint49_linear_1_2)"/>
<path fill-rule="evenodd" clip-rule="evenodd" d="M903.185 601.415C897.319 597.145 892.928 589.543 890.205 585.701C886.612 580.631 881.69 575.167 875.93 573.395C872.243 572.26 867.121 572.881 863.915 573.475C864.986 575.865 866.191 578.178 867.519 580.404C869.618 580.499 872.655 580.983 875.566 582.702C880.734 585.754 886.837 592.793 892.104 596.976C896.152 600.192 900.665 601.314 903.185 601.416L903.185 601.415Z" fill="url(#paint50_linear_1_2)"/>
<path fill-rule="evenodd" clip-rule="evenodd" d="M890.205 585.701C892.928 589.543 897.319 597.144 903.185 601.415C905.06 602.781 907.085 603.805 909.255 604.259C911.391 604.704 913.276 604.967 914.908 605.107C910.772 603.453 907.239 599.479 901.477 590.759C897.924 585.383 891.322 574.818 884.596 563.941C883.355 563.66 882 563.423 880.522 563.248C870.687 562.083 864.039 565.421 861.431 567.077C862.154 569.263 862.984 571.398 863.915 573.475C867.121 572.881 872.242 572.26 875.93 573.395C881.689 575.167 886.612 580.631 890.205 585.701L890.205 585.701Z" fill="url(#paint51_linear_1_2)"/>
<path fill-rule="evenodd" clip-rule="evenodd" d="M941.01 591.294C939.248 594.112 937.088 597.292 934.547 599.983C936.381 600.718 939.749 601.696 944.771 601.533C949.94 601.365 958.977 598.016 964.205 595.902C970.308 590.463 975.41 583.858 979.188 576.422C977.242 576.373 974.606 576.524 971.383 577.218C964.023 578.803 955.814 583.389 949.473 587.466C946.189 589.576 943.164 590.7 941.01 591.294L941.01 591.294Z" fill="url(#paint52_linear_1_2)"/>
<path fill-rule="evenodd" clip-rule="evenodd" d="M941.01 591.294C943.164 590.7 946.189 589.576 949.473 587.465C955.814 583.389 964.023 578.803 971.383 577.218C974.606 576.524 977.242 576.373 979.188 576.422C980.786 573.277 982.146 569.984 983.245 566.568C976.391 562.893 966.752 564.932 962.551 567.588C959.101 569.768 953.348 574.003 950.209 576.345C946.566 582.22 943.793 586.71 942.809 588.344C942.265 589.248 941.665 590.246 941.01 591.294Z" fill="url(#paint53_linear_1_2)"/>
<path fill-rule="evenodd" clip-rule="evenodd" d="M884.596 563.941C882.692 560.862 880.778 557.758 878.92 554.739C876.245 552.473 872.328 549.71 868.288 548.795C864.537 547.945 860.802 548.278 858.07 548.797C858.362 555.167 859.522 561.301 861.431 567.077C864.04 565.421 870.687 562.083 880.522 563.248C882 563.423 883.355 563.66 884.596 563.941Z" fill="url(#paint54_linear_1_2)"/>
<path fill-rule="evenodd" clip-rule="evenodd" d="M858 544.98C859.97 544.685 862.784 544.289 866.144 543.894C863.144 541.332 860.562 536.569 859.076 533.432C858.403 537.18 858.035 541.039 858 544.98Z" fill="url(#paint55_linear_1_2)"/>
<path fill-rule="evenodd" clip-rule="evenodd" d="M910.739 551.46L926.171 574.827C927.3 572.966 928.595 570.832 930.009 568.502C929.092 566.436 927.429 563.684 924.419 560.645C917.997 554.161 910.739 551.46 910.739 551.46Z" fill="url(#paint56_linear_1_2)"/>
<path fill-rule="evenodd" clip-rule="evenodd" d="M970.373 555.497C970.373 555.497 975.351 562.265 984.968 560.145C985.901 555.832 986.427 551.361 986.504 546.777C984.107 551.069 978.73 558.423 972.512 552.252L970.373 555.497V555.497Z" fill="url(#paint57_linear_1_2)"/>
<path fill-rule="evenodd" clip-rule="evenodd" d="M972.512 552.252C978.73 558.423 984.107 551.069 986.504 546.777C986.51 546.388 986.514 545.998 986.514 545.607C986.514 541.232 986.104 536.956 985.322 532.817L972.512 552.252V552.252Z" fill="url(#paint58_linear_1_2)"/>
<path fill-rule="evenodd" clip-rule="evenodd" d="M917.797 539.433C903.359 532.604 902.208 522.213 905.921 513.04C909.742 503.599 925.178 497.38 937.241 506.297C946.077 512.827 944.904 522.252 943.585 527.27C944.363 526.048 945.067 524.627 945.663 522.984C950.315 510.146 943.164 495.672 929.982 492.14C916.8 488.608 900 493.001 888.11 509.285C889.919 522.122 900.225 539.879 914.684 549.468C925.346 556.54 933.403 557.255 936.897 557.144C939.72 552.488 942.687 547.591 945.572 542.829C934.269 546.062 921.755 541.174 919.1 540.024C918.785 539.887 918.438 539.703 918.072 539.47C917.962 539.476 917.867 539.466 917.797 539.433L917.797 539.433Z" fill="url(#paint59_linear_1_2)"/>
<path fill-rule="evenodd" clip-rule="evenodd" d="M909.175 519.024C910.974 511.006 922.064 506.736 930.231 509.658C937.653 512.313 941.115 519.919 940.279 531.069C941.453 530.098 942.58 528.849 943.585 527.27C944.904 522.252 946.077 512.827 937.241 506.297C925.178 497.38 909.742 503.599 905.921 513.04C902.208 522.213 903.359 532.604 917.797 539.433C917.867 539.466 917.962 539.476 918.072 539.47C915.946 538.117 913.201 535.134 912.612 530.498C910.355 527.385 908.247 523.165 909.175 519.024V519.024Z" fill="url(#paint60_linear_1_2)"/>
<path fill-rule="evenodd" clip-rule="evenodd" d="M930.231 509.658C922.064 506.735 910.974 511.006 909.175 519.024C908.247 523.165 910.355 527.385 912.612 530.498C912.351 528.448 912.512 526.073 913.336 523.373C916.341 513.521 931.809 511.797 934.518 520.368C937.228 528.94 930.134 531.009 928.69 532.547C929.42 534.313 935.269 535.218 940.279 531.069C941.115 519.919 937.653 512.313 930.231 509.658V509.658Z" fill="url(#paint61_linear_1_2)"/>
<path fill-rule="evenodd" clip-rule="evenodd" d="M936.897 557.144C934.339 557.225 929.336 556.864 922.656 553.89C924.005 555.021 926.147 556.815 928.94 559.155C931.492 561.292 932.768 562.364 933.405 562.902C934.532 561.044 935.702 559.116 936.897 557.144H936.897Z" fill="url(#paint62_linear_1_2)"/>
<path fill-rule="evenodd" clip-rule="evenodd" d="M1003.17 543.025C1003.17 543.025 1013.07 569.368 1013.47 570.483C1013.86 571.601 1014.12 572.782 1015.74 572.772C1017.36 572.764 1020.11 572.764 1020.72 572.764C1021.34 572.764 1022.04 572.66 1022.71 570.701C1023.39 568.741 1032.88 543.75 1033.17 543.024C1033.46 542.297 1033.41 541.394 1031.96 541.403C1030.5 541.413 1028.88 541.403 1028.1 541.403C1027.31 541.403 1026.66 541.702 1026.07 543.349C1025.48 544.998 1018.16 564.459 1018.16 564.459C1018.16 564.459 1010.37 543.598 1010.1 542.909C1009.83 542.22 1009.39 541.425 1008.04 541.402C1006.69 541.377 1004.89 541.393 1004.16 541.418C1003.42 541.441 1002.65 541.912 1003.17 543.025V543.025ZM1233.82 541.061C1240.36 541.061 1249.08 541.122 1255.61 541.122C1256.25 541.122 1256.79 541.701 1256.79 542.408V546.63C1256.79 547.336 1256.25 547.916 1255.61 547.916H1251.15H1242.32H1239.39C1239.2 547.916 1239.05 548.084 1239.05 548.29V553.8C1239.05 554.006 1239.2 554.175 1239.39 554.175H1251.59C1252.19 554.175 1252.69 554.713 1252.69 555.371V559.299C1252.69 559.957 1252.19 560.496 1251.59 560.496H1239.39C1239.2 560.496 1239.05 560.665 1239.05 560.87V566.38C1239.05 566.586 1239.2 566.755 1239.39 566.755C1243.98 566.755 1250.89 566.494 1255.61 566.494C1256.25 566.494 1256.79 567.073 1256.79 567.78V572.002C1256.79 572.708 1256.25 573.288 1255.61 573.288C1249.12 573.288 1240.37 573.483 1233.82 573.483C1233.21 573.483 1232.72 572.944 1232.72 572.282V542.263C1232.72 541.601 1233.21 541.061 1233.82 541.061V541.061ZM1165.38 572.76C1165.38 572.76 1162.48 572.76 1161.54 572.76C1160.59 572.76 1159.9 572.587 1160.56 570.819C1161.21 569.051 1170.57 543.967 1171.01 542.954C1171.44 541.942 1171.65 541.636 1173.59 541.6C1175.52 541.564 1177.89 541.642 1178.61 541.624C1179.33 541.607 1180.14 541.638 1180.78 543.582C1181.41 545.528 1190.56 569.902 1190.84 570.579C1191.11 571.255 1191.84 572.738 1190.25 572.757C1188.66 572.775 1185.78 572.741 1185 572.717C1184.21 572.692 1183.72 572.612 1183.4 571.54C1183.09 570.467 1182.38 568.215 1182.23 567.742C1182.09 567.27 1181.93 567.011 1181.17 567.045C1180.4 567.08 1171.02 567.048 1170.25 567.04C1169.47 567.032 1169.41 567.355 1169.06 568.377C1168.72 569.4 1168.11 571.342 1168.02 571.65C1167.92 571.958 1167.81 572.864 1165.38 572.76H1165.38ZM1170.91 561.517H1180.6L1175.63 547.854L1170.91 561.517H1170.91ZM1194.31 543.103C1194.31 543.103 1204.47 569.899 1204.88 571.033C1205.28 572.17 1205.55 573.372 1207.21 573.362C1208.87 573.353 1211.69 573.353 1212.32 573.353C1212.95 573.353 1213.67 573.247 1214.37 571.255C1215.06 569.262 1224.8 543.841 1225.09 543.102C1225.39 542.363 1225.34 541.445 1223.85 541.454C1222.36 541.464 1220.7 541.454 1219.89 541.454C1219.08 541.454 1218.41 541.758 1217.81 543.433C1217.21 545.11 1209.7 564.906 1209.7 564.906C1209.7 564.906 1201.7 543.687 1201.42 542.986C1201.15 542.285 1200.69 541.476 1199.31 541.452C1197.92 541.427 1196.08 541.444 1195.33 541.468C1194.57 541.492 1193.78 541.972 1194.31 543.103L1194.31 543.103ZM1133.57 554.513C1135.6 560.217 1139.12 570.111 1139.37 570.906C1139.72 572.03 1139.95 573.217 1141.37 573.207C1142.79 573.199 1145.2 573.199 1145.74 573.199C1146.28 573.199 1146.89 573.094 1147.49 571.125C1148.08 569.156 1156.41 544.034 1156.66 543.304C1156.91 542.575 1156.87 541.666 1155.6 541.675C1154.32 541.685 1152.9 541.675 1152.21 541.675C1151.52 541.675 1150.95 541.976 1150.43 543.631C1149.92 545.289 1143.49 564.851 1143.49 564.851C1143.49 564.851 1136.65 543.882 1136.42 543.189C1136.18 542.496 1135.79 541.698 1134.61 541.674C1133.83 541.656 1133.06 541.677 1132.28 541.675C1131.6 541.675 1131.02 541.976 1130.5 543.631C1129.99 545.289 1123.57 564.851 1123.57 564.851C1123.57 564.851 1116.73 543.882 1116.49 543.189C1116.26 542.496 1115.87 541.698 1114.68 541.674C1113.5 541.649 1111.92 541.666 1111.28 541.69C1110.63 541.714 1109.96 542.187 1110.41 543.305C1110.41 543.305 1119.1 569.784 1119.45 570.906C1119.79 572.03 1120.02 573.217 1121.44 573.207C1122.86 573.199 1125.27 573.199 1125.81 573.199C1126.35 573.199 1126.97 573.093 1127.56 571.125C1127.89 570.029 1131.09 561.755 1133.57 554.513H1133.57ZM1078.11 541C1077.54 541 1077.08 541.518 1077.08 542.151V566.143V572.06V572.109C1077.08 572.743 1077.54 573.261 1078.11 573.261H1078.15H1081.87H1082.28C1082.87 573.261 1083.35 572.72 1083.35 572.06V567.313C1083.39 561.252 1083.41 553.484 1083.41 553.484C1088.12 558.365 1093.83 566.409 1099.71 572.606C1100.32 573.255 1100.19 573.123 1101.04 573.161L1103.26 573.261C1103.83 573.286 1104.29 572.743 1104.29 572.109V548.186V542.151V542.132L1104.29 542.121C1104.28 541.507 1103.84 541.006 1103.29 541H1103.28H1103.26H1099.7H1099.39C1098.84 541 1098.38 541.509 1098.38 542.132V544.45C1098.38 544.476 1098.38 544.505 1098.38 544.535C1098.33 550.688 1098.3 560.77 1098.3 560.77C1092.61 553.997 1087.54 547.666 1081.4 541.704C1080.69 541.013 1080.87 541 1079.95 541H1078.11H1078.11ZM1043.57 541.061C1050.11 541.061 1058.83 541.122 1065.35 541.122C1066 541.122 1066.54 541.701 1066.54 542.408V546.63C1066.54 547.336 1066 547.916 1065.35 547.916H1060.9H1052.07H1049.14C1048.95 547.916 1048.8 548.084 1048.8 548.29V553.8C1048.8 554.006 1048.95 554.175 1049.14 554.175H1061.34C1061.94 554.175 1062.44 554.713 1062.44 555.371V559.299C1062.44 559.957 1061.94 560.496 1061.34 560.496H1049.14C1048.95 560.496 1048.8 560.665 1048.8 560.87V566.38C1048.8 566.586 1048.95 566.755 1049.14 566.755C1053.73 566.755 1060.64 566.494 1065.35 566.494C1066 566.494 1066.54 567.073 1066.54 567.78V572.002C1066.54 572.708 1066 573.288 1065.35 573.288C1058.87 573.288 1050.12 573.483 1043.57 573.483C1042.97 573.483 1042.47 572.944 1042.47 572.282V542.263C1042.47 541.601 1042.97 541.061 1043.57 541.061V541.061Z" fill="url(#paint63_linear_1_2)"/>
<path fill-rule="evenodd" clip-rule="evenodd" d="M977.011 792.489C977.011 792.489 1006.07 840.216 1015.16 853.972C1024.25 867.729 1027.79 869.674 1036.91 869.334C1046.02 868.994 1052.65 857.94 1056.49 851.557C1060.33 845.175 1091.48 795.217 1095.13 789.356C1098.77 783.494 1100.14 777.372 1094.8 772.552C1089.46 767.733 1081.12 769.621 1076.43 777.567C1071.74 785.513 1035.2 845.706 1035.2 845.706C1035.2 845.706 995.308 780.231 992.845 776.39C990.382 772.548 984.177 767.426 976.493 771.908C968.81 776.39 972.455 786.831 977.011 792.49V792.489Z" fill="url(#paint64_linear_1_2)"/>
<path fill-rule="evenodd" clip-rule="evenodd" d="M1028.91 868.107C1027.28 867.967 1025.39 867.704 1023.26 867.259C1021.09 866.805 1019.06 865.781 1017.19 864.415C1014.66 864.314 1010.15 863.191 1006.1 859.976C1000.84 855.793 994.734 848.754 989.566 845.702C986.655 843.983 983.618 843.499 981.519 843.404C992.833 862.363 1013.12 875 1036.26 875C1052.29 875 1066.95 868.934 1078.2 858.902C1072.98 861.016 1063.94 864.365 1058.77 864.533C1053.75 864.695 1050.38 863.718 1048.55 862.983C1045.36 866.354 1041.58 868.958 1037.23 869.121C1033.89 869.245 1031.3 869.063 1028.91 868.107L1028.91 868.107Z" fill="url(#paint65_linear_1_2)"/>
<path fill-rule="evenodd" clip-rule="evenodd" d="M1017.19 864.415C1011.32 860.145 1006.93 852.543 1004.21 848.701C1000.61 843.631 995.69 838.167 989.93 836.395C986.243 835.26 981.121 835.881 977.915 836.475C978.986 838.865 980.191 841.178 981.519 843.404C983.618 843.499 986.655 843.983 989.566 845.702C994.734 848.754 1000.84 855.793 1006.1 859.976C1010.15 863.192 1014.66 864.314 1017.19 864.416L1017.19 864.415Z" fill="url(#paint66_linear_1_2)"/>
<path fill-rule="evenodd" clip-rule="evenodd" d="M1004.21 848.701C1006.93 852.543 1011.32 860.144 1017.19 864.415C1019.06 865.781 1021.09 866.805 1023.26 867.259C1025.39 867.704 1027.28 867.967 1028.91 868.107C1024.77 866.453 1021.24 862.479 1015.48 853.759C1011.92 848.383 1005.32 837.818 998.596 826.941C997.355 826.66 996 826.423 994.522 826.248C984.687 825.083 978.039 828.421 975.431 830.077C976.154 832.263 976.984 834.398 977.915 836.475C981.121 835.881 986.242 835.26 989.93 836.395C995.689 838.167 1000.61 843.631 1004.21 848.701L1004.21 848.701Z" fill="url(#paint67_linear_1_2)"/>
<path fill-rule="evenodd" clip-rule="evenodd" d="M1055.01 854.294C1053.25 857.112 1051.09 860.292 1048.55 862.983C1050.38 863.718 1053.75 864.696 1058.77 864.533C1063.94 864.365 1072.98 861.016 1078.2 858.902C1084.31 853.463 1089.41 846.858 1093.19 839.422C1091.24 839.373 1088.61 839.524 1085.38 840.218C1078.02 841.803 1069.81 846.389 1063.47 850.466C1060.19 852.576 1057.16 853.7 1055.01 854.294L1055.01 854.294Z" fill="url(#paint68_linear_1_2)"/>
<path fill-rule="evenodd" clip-rule="evenodd" d="M1055.01 854.294C1057.16 853.7 1060.19 852.576 1063.47 850.465C1069.81 846.389 1078.02 841.803 1085.38 840.218C1088.61 839.524 1091.24 839.373 1093.19 839.422C1094.79 836.277 1096.15 832.984 1097.25 829.568C1090.39 825.894 1080.75 827.932 1076.55 830.588C1073.1 832.768 1067.35 837.003 1064.21 839.345C1060.57 845.22 1057.79 849.71 1056.81 851.344C1056.26 852.248 1055.66 853.246 1055.01 854.294Z" fill="url(#paint69_linear_1_2)"/>
<path fill-rule="evenodd" clip-rule="evenodd" d="M998.596 826.941C996.692 823.862 994.778 820.758 992.92 817.739C990.245 815.473 986.328 812.71 982.288 811.795C978.537 810.945 974.802 811.278 972.07 811.797C972.362 818.167 973.522 824.301 975.431 830.077C978.04 828.421 984.687 825.083 994.522 826.248C996 826.423 997.355 826.66 998.596 826.941Z" fill="url(#paint70_linear_1_2)"/>
<path fill-rule="evenodd" clip-rule="evenodd" d="M972 807.98C973.97 807.685 976.784 807.289 980.144 806.894C977.144 804.332 974.562 799.569 973.076 796.432C972.403 800.18 972.035 804.039 972 807.98Z" fill="url(#paint71_linear_1_2)"/>
<path fill-rule="evenodd" clip-rule="evenodd" d="M1024.74 814.46L1040.17 837.827C1041.3 835.966 1042.6 833.832 1044.01 831.502C1043.09 829.436 1041.43 826.684 1038.42 823.645C1032 817.161 1024.74 814.46 1024.74 814.46Z" fill="url(#paint72_linear_1_2)"/>
<path fill-rule="evenodd" clip-rule="evenodd" d="M1084.37 818.497C1084.37 818.497 1089.35 825.265 1098.97 823.145C1099.9 818.832 1100.43 814.361 1100.5 809.777C1098.11 814.069 1092.73 821.423 1086.51 815.252L1084.37 818.497V818.497Z" fill="url(#paint73_linear_1_2)"/>
<path fill-rule="evenodd" clip-rule="evenodd" d="M1086.51 815.252C1092.73 821.423 1098.11 814.069 1100.5 809.777C1100.51 809.388 1100.51 808.998 1100.51 808.607C1100.51 804.232 1100.1 799.956 1099.32 795.817L1086.51 815.252V815.252Z" fill="url(#paint74_linear_1_2)"/>
<path fill-rule="evenodd" clip-rule="evenodd" d="M1031.8 802.433C1017.36 795.604 1016.21 785.213 1019.92 776.04C1023.74 766.599 1039.18 760.38 1051.24 769.297C1060.08 775.827 1058.9 785.252 1057.59 790.27C1058.36 789.048 1059.07 787.627 1059.66 785.984C1064.32 773.146 1057.16 758.672 1043.98 755.14C1030.8 751.608 1014 756.001 1002.11 772.285C1003.92 785.122 1014.22 802.879 1028.68 812.468C1039.35 819.54 1047.4 820.255 1050.9 820.144C1053.72 815.488 1056.69 810.591 1059.57 805.829C1048.27 809.062 1035.75 804.174 1033.1 803.024C1032.78 802.887 1032.44 802.703 1032.07 802.47C1031.96 802.476 1031.87 802.466 1031.8 802.433L1031.8 802.433Z" fill="url(#paint75_linear_1_2)"/>
<path fill-rule="evenodd" clip-rule="evenodd" d="M1023.18 782.024C1024.97 774.006 1036.06 769.736 1044.23 772.658C1051.65 775.313 1055.11 782.919 1054.28 794.069C1055.45 793.098 1056.58 791.849 1057.59 790.27C1058.9 785.252 1060.08 775.827 1051.24 769.297C1039.18 760.38 1023.74 766.599 1019.92 776.04C1016.21 785.213 1017.36 795.604 1031.8 802.433C1031.87 802.466 1031.96 802.476 1032.07 802.47C1029.95 801.117 1027.2 798.134 1026.61 793.498C1024.35 790.385 1022.25 786.165 1023.18 782.024V782.024Z" fill="url(#paint76_linear_1_2)"/>
<path fill-rule="evenodd" clip-rule="evenodd" d="M1044.23 772.658C1036.06 769.735 1024.97 774.006 1023.18 782.024C1022.25 786.165 1024.36 790.385 1026.61 793.498C1026.35 791.448 1026.51 789.073 1027.34 786.373C1030.34 776.521 1045.81 774.797 1048.52 783.368C1051.23 791.94 1044.13 794.009 1042.69 795.547C1043.42 797.313 1049.27 798.218 1054.28 794.069C1055.12 782.919 1051.65 775.313 1044.23 772.658V772.658Z" fill="url(#paint77_linear_1_2)"/>
<path fill-rule="evenodd" clip-rule="evenodd" d="M1050.9 820.144C1048.34 820.225 1043.34 819.864 1036.66 816.89C1038.01 818.021 1040.15 819.815 1042.94 822.155C1045.49 824.292 1046.77 825.364 1047.41 825.902C1048.53 824.044 1049.7 822.116 1050.9 820.144H1050.9Z" fill="url(#paint78_linear_1_2)"/>
<path fill-rule="evenodd" clip-rule="evenodd" d="M236.011 771.489C236.011 771.489 265.066 819.216 274.157 832.972C283.249 846.729 286.789 848.674 295.907 848.334C305.024 847.994 311.647 836.94 315.49 830.557C319.332 824.175 350.479 774.217 354.126 768.356C357.773 762.494 359.14 756.372 353.8 751.552C348.46 746.733 340.123 748.621 335.434 756.567C330.744 764.513 294.199 824.706 294.199 824.706C294.199 824.706 254.308 759.231 251.845 755.39C249.382 751.548 243.177 746.426 235.493 750.908C227.81 755.39 231.455 765.831 236.011 771.49V771.489Z" fill="url(#paint79_linear_1_2)"/>
<path fill-rule="evenodd" clip-rule="evenodd" d="M287.908 847.107C286.276 846.967 284.391 846.704 282.255 846.259C280.085 845.805 278.06 844.781 276.185 843.415C273.665 843.314 269.152 842.191 265.104 838.976C259.837 834.793 253.734 827.754 248.566 824.702C245.655 822.983 242.618 822.499 240.519 822.404C251.833 841.363 272.116 854 295.255 854C311.287 854 325.948 847.934 337.205 837.902C331.977 840.016 322.94 843.365 317.771 843.533C312.75 843.695 309.381 842.718 307.546 841.983C304.362 845.354 300.578 847.958 296.226 848.121C292.888 848.245 290.297 848.063 287.908 847.107L287.908 847.107Z" fill="url(#paint80_linear_1_2)"/>
<path fill-rule="evenodd" clip-rule="evenodd" d="M276.185 843.415C270.319 839.145 265.928 831.543 263.205 827.701C259.612 822.631 254.69 817.167 248.93 815.395C245.243 814.26 240.121 814.881 236.915 815.475C237.986 817.865 239.191 820.178 240.519 822.404C242.618 822.499 245.655 822.983 248.566 824.702C253.734 827.754 259.837 834.793 265.104 838.976C269.152 842.192 273.665 843.314 276.185 843.416L276.185 843.415Z" fill="url(#paint81_linear_1_2)"/>
<path fill-rule="evenodd" clip-rule="evenodd" d="M263.205 827.701C265.928 831.543 270.319 839.144 276.185 843.415C278.06 844.781 280.085 845.805 282.256 846.259C284.391 846.704 286.276 846.967 287.908 847.107C283.772 845.453 280.24 841.479 274.477 832.759C270.924 827.383 264.322 816.818 257.596 805.941C256.355 805.66 255 805.423 253.522 805.248C243.687 804.083 237.04 807.421 234.431 809.077C235.154 811.263 235.984 813.398 236.915 815.475C240.121 814.881 245.243 814.26 248.93 815.395C254.69 817.167 259.612 822.631 263.205 827.701L263.205 827.701Z" fill="url(#paint82_linear_1_2)"/>
<path fill-rule="evenodd" clip-rule="evenodd" d="M314.01 833.294C312.248 836.112 310.088 839.292 307.547 841.983C309.381 842.718 312.749 843.696 317.771 843.533C322.94 843.365 331.977 840.016 337.205 837.902C343.308 832.463 348.41 825.858 352.188 818.422C350.242 818.373 347.606 818.524 344.383 819.218C337.023 820.803 328.814 825.389 322.473 829.466C319.189 831.576 316.164 832.7 314.01 833.294L314.01 833.294Z" fill="url(#paint83_linear_1_2)"/>
<path fill-rule="evenodd" clip-rule="evenodd" d="M314.01 833.294C316.164 832.7 319.189 831.576 322.473 829.465C328.814 825.389 337.023 820.803 344.383 819.218C347.606 818.524 350.242 818.373 352.188 818.422C353.786 815.277 355.146 811.984 356.245 808.568C349.391 804.893 339.752 806.932 335.551 809.588C332.101 811.768 326.348 816.003 323.209 818.345C319.566 824.22 316.793 828.71 315.809 830.344C315.265 831.248 314.665 832.246 314.01 833.294Z" fill="url(#paint84_linear_1_2)"/>
<path fill-rule="evenodd" clip-rule="evenodd" d="M257.596 805.941C255.692 802.862 253.778 799.758 251.92 796.739C249.245 794.473 245.328 791.71 241.288 790.795C237.537 789.945 233.802 790.278 231.07 790.797C231.362 797.167 232.522 803.301 234.431 809.077C237.039 807.421 243.687 804.083 253.522 805.248C255 805.423 256.355 805.66 257.596 805.941Z" fill="url(#paint85_linear_1_2)"/>
<path fill-rule="evenodd" clip-rule="evenodd" d="M231 786.98C232.97 786.685 235.784 786.289 239.144 785.894C236.144 783.332 233.562 778.569 232.076 775.432C231.403 779.18 231.035 783.039 231 786.98Z" fill="url(#paint86_linear_1_2)"/>
<path fill-rule="evenodd" clip-rule="evenodd" d="M283.739 793.46L299.171 816.827C300.3 814.966 301.595 812.832 303.009 810.502C302.092 808.436 300.429 805.684 297.419 802.645C290.997 796.161 283.739 793.46 283.739 793.46Z" fill="url(#paint87_linear_1_2)"/>
<path fill-rule="evenodd" clip-rule="evenodd" d="M343.373 797.497C343.373 797.497 348.351 804.265 357.968 802.145C358.901 797.832 359.427 793.361 359.504 788.777C357.107 793.069 351.73 800.423 345.512 794.252L343.373 797.497V797.497Z" fill="url(#paint88_linear_1_2)"/>
<path fill-rule="evenodd" clip-rule="evenodd" d="M345.512 794.252C351.73 800.423 357.107 793.069 359.504 788.777C359.51 788.388 359.514 787.998 359.514 787.607C359.514 783.232 359.104 778.956 358.322 774.817L345.512 794.252V794.252Z" fill="url(#paint89_linear_1_2)"/>
<path fill-rule="evenodd" clip-rule="evenodd" d="M290.797 781.433C276.359 774.604 275.208 764.213 278.921 755.04C282.742 745.599 298.178 739.38 310.241 748.297C319.077 754.827 317.904 764.252 316.585 769.27C317.363 768.048 318.067 766.627 318.663 764.984C323.315 752.146 316.164 737.672 302.982 734.14C289.8 730.608 273 735.001 261.11 751.285C262.919 764.122 273.225 781.879 287.684 791.468C298.346 798.54 306.403 799.255 309.897 799.144C312.72 794.488 315.687 789.591 318.572 784.829C307.269 788.062 294.755 783.174 292.1 782.024C291.785 781.887 291.438 781.703 291.072 781.47C290.962 781.476 290.867 781.466 290.797 781.433L290.797 781.433Z" fill="url(#paint90_linear_1_2)"/>
<path fill-rule="evenodd" clip-rule="evenodd" d="M282.175 761.024C283.974 753.006 295.064 748.736 303.231 751.658C310.653 754.313 314.115 761.919 313.279 773.069C314.453 772.098 315.58 770.849 316.585 769.27C317.904 764.252 319.077 754.827 310.241 748.297C298.178 739.38 282.742 745.599 278.921 755.04C275.208 764.213 276.359 774.604 290.797 781.433C290.867 781.466 290.962 781.476 291.072 781.47C288.946 780.117 286.201 777.134 285.612 772.498C283.355 769.385 281.247 765.165 282.175 761.024V761.024Z" fill="url(#paint91_linear_1_2)"/>
<path fill-rule="evenodd" clip-rule="evenodd" d="M303.231 751.658C295.064 748.735 283.974 753.006 282.175 761.024C281.247 765.165 283.355 769.385 285.612 772.498C285.351 770.448 285.512 768.073 286.336 765.373C289.341 755.521 304.809 753.797 307.518 762.368C310.228 770.94 303.134 773.009 301.69 774.547C302.42 776.313 308.269 777.218 313.279 773.069C314.115 761.919 310.653 754.313 303.231 751.658V751.658Z" fill="url(#paint92_linear_1_2)"/>
<path fill-rule="evenodd" clip-rule="evenodd" d="M309.897 799.144C307.339 799.225 302.336 798.864 295.656 795.89C297.005 797.021 299.147 798.815 301.94 801.155C304.492 803.292 305.768 804.364 306.405 804.902C307.532 803.044 308.702 801.116 309.897 799.144H309.897Z" fill="url(#paint93_linear_1_2)"/>
<defs>
<linearGradient id="paint0_linear_1_2" x1="312.472" y1="102.328" x2="314.741" y2="290.877" gradientUnits="userSpaceOnUse">
<stop stop-color="#80F74D"/>
<stop offset="1" stop-color="#00B254"/>
</linearGradient>
<linearGradient id="paint1_linear_1_2" x1="219.368" y1="250.079" x2="369.447" y2="287.738" gradientUnits="userSpaceOnUse">
<stop stop-color="#0B1D29"/>
<stop offset="1" stop-color="#002E40"/>
</linearGradient>
<linearGradient id="paint2_linear_1_2" x1="202.276" y1="228.233" x2="270.273" y2="277.807" gradientUnits="userSpaceOnUse">
<stop stop-color="#0B707A"/>
<stop offset="1" stop-color="#0B2C3F"/>
</linearGradient>
<linearGradient id="paint3_linear_1_2" x1="197.542" y1="216.036" x2="293.212" y2="284.897" gradientUnits="userSpaceOnUse">
<stop stop-color="#52EDE5"/>
<stop offset="1" stop-color="#11848B"/>
</linearGradient>
<linearGradient id="paint4_linear_1_2" x1="336.931" y1="278.769" x2="421.184" y2="241.066" gradientUnits="userSpaceOnUse">
<stop stop-color="#00575C"/>
<stop offset="1" stop-color="#1CDDC8"/>
</linearGradient>
<linearGradient id="paint5_linear_1_2" x1="429.773" y1="215.066" x2="352.684" y2="256.58" gradientUnits="userSpaceOnUse">
<stop stop-color="#27FAE7"/>
<stop offset="1" stop-color="#08D2C6"/>
</linearGradient>
<linearGradient id="paint6_linear_1_2" x1="191.321" y1="184.415" x2="239.596" y2="206.649" gradientUnits="userSpaceOnUse">
<stop stop-color="#2BF48C"/>
<stop offset="1" stop-color="#0ADF8B"/>
</linearGradient>
<linearGradient id="paint7_linear_1_2" x1="198.754" y1="172.814" x2="192.35" y2="156.218" gradientUnits="userSpaceOnUse">
<stop stop-color="#124D53"/>
<stop offset="1" stop-color="#006E68"/>
</linearGradient>
<linearGradient id="paint8_linear_1_2" x1="322.996" y1="227.462" x2="284.5" y2="179" gradientUnits="userSpaceOnUse">
<stop stop-color="#0F2E4B"/>
<stop offset="0.476532" stop-color="#054C4F"/>
<stop offset="1" stop-color="#13E1BE"/>
</linearGradient>
<linearGradient id="paint9_linear_1_2" x1="405.233" y1="193.96" x2="434.076" y2="197.592" gradientUnits="userSpaceOnUse">
<stop stop-color="#006F6B"/>
<stop offset="1" stop-color="#01A79B"/>
</linearGradient>
<linearGradient id="paint10_linear_1_2" x1="409.311" y1="187.774" x2="435.742" y2="166.77" gradientUnits="userSpaceOnUse">
<stop stop-color="#10D377"/>
<stop offset="1" stop-color="#64F78C"/>
</linearGradient>
<linearGradient id="paint11_linear_1_2" x1="257.241" y1="95.337" x2="343.015" y2="194.457" gradientUnits="userSpaceOnUse">
<stop stop-color="#51F18F"/>
<stop offset="0.168627" stop-color="#3CF389"/>
<stop offset="0.529412" stop-color="#14E1BA"/>
<stop offset="1" stop-color="#12E1C3"/>
</linearGradient>
<linearGradient id="paint12_linear_1_2" x1="317.203" y1="96.1992" x2="312.181" y2="166.3" gradientUnits="userSpaceOnUse">
<stop stop-color="#1EF6D1"/>
<stop offset="1" stop-color="#005A54"/>
</linearGradient>
<linearGradient id="paint13_linear_1_2" x1="322.015" y1="108.885" x2="312.181" y2="147.382" gradientUnits="userSpaceOnUse">
<stop stop-color="#13DEC0"/>
<stop offset="1" stop-color="#0C5661"/>
</linearGradient>
<linearGradient id="paint14_linear_1_2" x1="336.202" y1="205.691" x2="317.496" y2="192.258" gradientUnits="userSpaceOnUse">
<stop stop-color="#046667"/>
<stop offset="1" stop-color="#335B65"/>
</linearGradient>
<linearGradient id="paint15_linear_1_2" x1="188.618" y1="342.884" x2="436.688" y2="351.371" gradientUnits="userSpaceOnUse">
<stop stop-color="#05CC79"/>
<stop offset="0.521569" stop-color="#0DC251"/>
<stop offset="1" stop-color="#51E14E"/>
</linearGradient>
<linearGradient id="paint16_linear_1_2" x1="190.717" y1="511.433" x2="191.907" y2="610.334" gradientUnits="userSpaceOnUse">
<stop stop-color="#80F74D"/>
<stop offset="1" stop-color="#00B254"/>
</linearGradient>
<linearGradient id="paint17_linear_1_2" x1="141.88" y1="588.934" x2="220.602" y2="608.687" gradientUnits="userSpaceOnUse">
<stop stop-color="#0B1D29"/>
<stop offset="1" stop-color="#002E40"/>
</linearGradient>
<linearGradient id="paint18_linear_1_2" x1="132.915" y1="577.475" x2="168.581" y2="603.478" gradientUnits="userSpaceOnUse">
<stop stop-color="#0B707A"/>
<stop offset="1" stop-color="#0B2C3F"/>
</linearGradient>
<linearGradient id="paint19_linear_1_2" x1="130.431" y1="571.077" x2="180.614" y2="607.197" gradientUnits="userSpaceOnUse">
<stop stop-color="#52EDE5"/>
<stop offset="1" stop-color="#11848B"/>
</linearGradient>
<linearGradient id="paint20_linear_1_2" x1="203.547" y1="603.983" x2="247.74" y2="584.206" gradientUnits="userSpaceOnUse">
<stop stop-color="#00575C"/>
<stop offset="1" stop-color="#1CDDC8"/>
</linearGradient>
<linearGradient id="paint21_linear_1_2" x1="252.245" y1="570.568" x2="211.809" y2="592.344" gradientUnits="userSpaceOnUse">
<stop stop-color="#27FAE7"/>
<stop offset="1" stop-color="#08D2C6"/>
</linearGradient>
<linearGradient id="paint22_linear_1_2" x1="127.168" y1="554.49" x2="152.491" y2="566.153" gradientUnits="userSpaceOnUse">
<stop stop-color="#2BF48C"/>
<stop offset="1" stop-color="#0ADF8B"/>
</linearGradient>
<linearGradient id="paint23_linear_1_2" x1="131.067" y1="548.405" x2="127.708" y2="539.7" gradientUnits="userSpaceOnUse">
<stop stop-color="#124D53"/>
<stop offset="1" stop-color="#006E68"/>
</linearGradient>
<linearGradient id="paint24_linear_1_2" x1="196.237" y1="577.07" x2="176.044" y2="551.65" gradientUnits="userSpaceOnUse">
<stop stop-color="#0F2E4B"/>
<stop offset="0.476532" stop-color="#054C4F"/>
<stop offset="1" stop-color="#13E1BE"/>
</linearGradient>
<linearGradient id="paint25_linear_1_2" x1="239.373" y1="559.497" x2="254.503" y2="561.402" gradientUnits="userSpaceOnUse">
<stop stop-color="#006F6B"/>
<stop offset="1" stop-color="#01A79B"/>
</linearGradient>
<linearGradient id="paint26_linear_1_2" x1="241.512" y1="556.252" x2="255.376" y2="545.235" gradientUnits="userSpaceOnUse">
<stop stop-color="#10D377"/>
<stop offset="1" stop-color="#64F78C"/>
</linearGradient>
<linearGradient id="paint27_linear_1_2" x1="161.746" y1="507.766" x2="206.737" y2="559.758" gradientUnits="userSpaceOnUse">
<stop stop-color="#51F18F"/>
<stop offset="0.168627" stop-color="#3CF389"/>
<stop offset="0.529412" stop-color="#14E1BA"/>
<stop offset="1" stop-color="#12E1C3"/>
</linearGradient>
<linearGradient id="paint28_linear_1_2" x1="193.198" y1="508.218" x2="190.564" y2="544.988" gradientUnits="userSpaceOnUse">
<stop stop-color="#1EF6D1"/>
<stop offset="1" stop-color="#005A54"/>
</linearGradient>
<linearGradient id="paint29_linear_1_2" x1="195.722" y1="514.872" x2="190.564" y2="535.065" gradientUnits="userSpaceOnUse">
<stop stop-color="#13DEC0"/>
<stop offset="1" stop-color="#0C5661"/>
</linearGradient>
<linearGradient id="paint30_linear_1_2" x1="203.164" y1="565.651" x2="193.352" y2="558.605" gradientUnits="userSpaceOnUse">
<stop stop-color="#046667"/>
<stop offset="1" stop-color="#335B65"/>
</linearGradient>
<linearGradient id="paint31_linear_1_2" x1="273.618" y1="550.884" x2="521.688" y2="559.371" gradientUnits="userSpaceOnUse">
<stop stop-color="#05CC79"/>
<stop offset="0.521569" stop-color="#0DC251"/>
<stop offset="1" stop-color="#51E14E"/>
</linearGradient>
<linearGradient id="paint32_linear_1_2" x1="1064.47" y1="118.328" x2="1066.74" y2="306.877" gradientUnits="userSpaceOnUse">
<stop stop-color="#80F74D"/>
<stop offset="1" stop-color="#00B254"/>
</linearGradient>
<linearGradient id="paint33_linear_1_2" x1="971.368" y1="266.079" x2="1121.45" y2="303.738" gradientUnits="userSpaceOnUse">
<stop stop-color="#0B1D29"/>
<stop offset="1" stop-color="#002E40"/>
</linearGradient>
<linearGradient id="paint34_linear_1_2" x1="954.276" y1="244.233" x2="1022.27" y2="293.807" gradientUnits="userSpaceOnUse">
<stop stop-color="#0B707A"/>
<stop offset="1" stop-color="#0B2C3F"/>
</linearGradient>
<linearGradient id="paint35_linear_1_2" x1="949.542" y1="232.036" x2="1045.21" y2="300.897" gradientUnits="userSpaceOnUse">
<stop stop-color="#52EDE5"/>
<stop offset="1" stop-color="#11848B"/>
</linearGradient>
<linearGradient id="paint36_linear_1_2" x1="1088.93" y1="294.769" x2="1173.18" y2="257.066" gradientUnits="userSpaceOnUse">
<stop stop-color="#00575C"/>
<stop offset="1" stop-color="#1CDDC8"/>
</linearGradient>
<linearGradient id="paint37_linear_1_2" x1="1181.77" y1="231.066" x2="1104.68" y2="272.58" gradientUnits="userSpaceOnUse">
<stop stop-color="#27FAE7"/>
<stop offset="1" stop-color="#08D2C6"/>
</linearGradient>
<linearGradient id="paint38_linear_1_2" x1="943.321" y1="200.415" x2="991.596" y2="222.649" gradientUnits="userSpaceOnUse">
<stop stop-color="#2BF48C"/>
<stop offset="1" stop-color="#0ADF8B"/>
</linearGradient>
<linearGradient id="paint39_linear_1_2" x1="950.754" y1="188.814" x2="944.35" y2="172.218" gradientUnits="userSpaceOnUse">
<stop stop-color="#124D53"/>
<stop offset="1" stop-color="#006E68"/>
</linearGradient>
<linearGradient id="paint40_linear_1_2" x1="1075" y1="243.462" x2="1036.5" y2="195" gradientUnits="userSpaceOnUse">
<stop stop-color="#0F2E4B"/>
<stop offset="0.476532" stop-color="#054C4F"/>
<stop offset="1" stop-color="#13E1BE"/>
</linearGradient>
<linearGradient id="paint41_linear_1_2" x1="1157.23" y1="209.96" x2="1186.08" y2="213.592" gradientUnits="userSpaceOnUse">
<stop stop-color="#006F6B"/>
<stop offset="1" stop-color="#01A79B"/>
</linearGradient>
<linearGradient id="paint42_linear_1_2" x1="1161.31" y1="203.774" x2="1187.74" y2="182.77" gradientUnits="userSpaceOnUse">
<stop stop-color="#10D377"/>
<stop offset="1" stop-color="#64F78C"/>
</linearGradient>
<linearGradient id="paint43_linear_1_2" x1="1009.24" y1="111.337" x2="1095.01" y2="210.457" gradientUnits="userSpaceOnUse">
<stop stop-color="#51F18F"/>
<stop offset="0.168627" stop-color="#3CF389"/>
<stop offset="0.529412" stop-color="#14E1BA"/>
<stop offset="1" stop-color="#12E1C3"/>
</linearGradient>
<linearGradient id="paint44_linear_1_2" x1="1069.2" y1="112.199" x2="1064.18" y2="182.3" gradientUnits="userSpaceOnUse">
<stop stop-color="#1EF6D1"/>
<stop offset="1" stop-color="#005A54"/>
</linearGradient>
<linearGradient id="paint45_linear_1_2" x1="1074.01" y1="124.885" x2="1064.18" y2="163.382" gradientUnits="userSpaceOnUse">
<stop stop-color="#13DEC0"/>
<stop offset="1" stop-color="#0C5661"/>
</linearGradient>
<linearGradient id="paint46_linear_1_2" x1="1088.2" y1="221.691" x2="1069.5" y2="208.258" gradientUnits="userSpaceOnUse">
<stop stop-color="#046667"/>
<stop offset="1" stop-color="#335B65"/>
</linearGradient>
<linearGradient id="paint47_linear_1_2" x1="940.618" y1="358.884" x2="1188.69" y2="367.371" gradientUnits="userSpaceOnUse">
<stop stop-color="#05CC79"/>
<stop offset="0.521569" stop-color="#0DC251"/>
<stop offset="1" stop-color="#51E14E"/>
</linearGradient>
<linearGradient id="paint48_linear_1_2" x1="921.717" y1="507.433" x2="922.907" y2="606.334" gradientUnits="userSpaceOnUse">
<stop stop-color="#80F74D"/>
<stop offset="1" stop-color="#00B254"/>
</linearGradient>
<linearGradient id="paint49_linear_1_2" x1="872.88" y1="584.934" x2="951.602" y2="604.687" gradientUnits="userSpaceOnUse">
<stop stop-color="#0B1D29"/>
<stop offset="1" stop-color="#002E40"/>
</linearGradient>
<linearGradient id="paint50_linear_1_2" x1="863.915" y1="573.475" x2="899.581" y2="599.478" gradientUnits="userSpaceOnUse">
<stop stop-color="#0B707A"/>
<stop offset="1" stop-color="#0B2C3F"/>
</linearGradient>
<linearGradient id="paint51_linear_1_2" x1="861.431" y1="567.077" x2="911.614" y2="603.197" gradientUnits="userSpaceOnUse">
<stop stop-color="#52EDE5"/>
<stop offset="1" stop-color="#11848B"/>
</linearGradient>
<linearGradient id="paint52_linear_1_2" x1="934.547" y1="599.983" x2="978.74" y2="580.206" gradientUnits="userSpaceOnUse">
<stop stop-color="#00575C"/>
<stop offset="1" stop-color="#1CDDC8"/>
</linearGradient>
<linearGradient id="paint53_linear_1_2" x1="983.245" y1="566.568" x2="942.809" y2="588.344" gradientUnits="userSpaceOnUse">
<stop stop-color="#27FAE7"/>
<stop offset="1" stop-color="#08D2C6"/>
</linearGradient>
<linearGradient id="paint54_linear_1_2" x1="858.168" y1="550.49" x2="883.491" y2="562.153" gradientUnits="userSpaceOnUse">
<stop stop-color="#2BF48C"/>
<stop offset="1" stop-color="#0ADF8B"/>
</linearGradient>
<linearGradient id="paint55_linear_1_2" x1="862.067" y1="544.405" x2="858.708" y2="535.7" gradientUnits="userSpaceOnUse">
<stop stop-color="#124D53"/>
<stop offset="1" stop-color="#006E68"/>
</linearGradient>
<linearGradient id="paint56_linear_1_2" x1="927.237" y1="573.07" x2="907.044" y2="547.65" gradientUnits="userSpaceOnUse">
<stop stop-color="#0F2E4B"/>
<stop offset="0.476532" stop-color="#054C4F"/>
<stop offset="1" stop-color="#13E1BE"/>
</linearGradient>
<linearGradient id="paint57_linear_1_2" x1="970.373" y1="555.497" x2="985.503" y2="557.402" gradientUnits="userSpaceOnUse">
<stop stop-color="#006F6B"/>
<stop offset="1" stop-color="#01A79B"/>
</linearGradient>
<linearGradient id="paint58_linear_1_2" x1="972.512" y1="552.252" x2="986.376" y2="541.235" gradientUnits="userSpaceOnUse">
<stop stop-color="#10D377"/>
<stop offset="1" stop-color="#64F78C"/>
</linearGradient>
<linearGradient id="paint59_linear_1_2" x1="892.746" y1="503.766" x2="937.737" y2="555.758" gradientUnits="userSpaceOnUse">
<stop stop-color="#51F18F"/>
<stop offset="0.168627" stop-color="#3CF389"/>
<stop offset="0.529412" stop-color="#14E1BA"/>
<stop offset="1" stop-color="#12E1C3"/>
</linearGradient>
<linearGradient id="paint60_linear_1_2" x1="924.198" y1="504.218" x2="921.564" y2="540.988" gradientUnits="userSpaceOnUse">
<stop stop-color="#1EF6D1"/>
<stop offset="1" stop-color="#005A54"/>
</linearGradient>
<linearGradient id="paint61_linear_1_2" x1="926.722" y1="510.872" x2="921.564" y2="531.065" gradientUnits="userSpaceOnUse">
<stop stop-color="#13DEC0"/>
<stop offset="1" stop-color="#0C5661"/>
</linearGradient>
<linearGradient id="paint62_linear_1_2" x1="934.164" y1="561.651" x2="924.352" y2="554.605" gradientUnits="userSpaceOnUse">
<stop stop-color="#046667"/>
<stop offset="1" stop-color="#335B65"/>
</linearGradient>
<linearGradient id="paint63_linear_1_2" x1="1004.62" y1="546.884" x2="1252.69" y2="555.371" gradientUnits="userSpaceOnUse">
<stop stop-color="#05CC79"/>
<stop offset="0.521569" stop-color="#0DC251"/>
<stop offset="1" stop-color="#51E14E"/>
</linearGradient>
<linearGradient id="paint64_linear_1_2" x1="1035.72" y1="770.433" x2="1036.91" y2="869.334" gradientUnits="userSpaceOnUse">
<stop stop-color="#80F74D"/>
<stop offset="1" stop-color="#00B254"/>
</linearGradient>
<linearGradient id="paint65_linear_1_2" x1="986.88" y1="847.934" x2="1065.6" y2="867.687" gradientUnits="userSpaceOnUse">
<stop stop-color="#0B1D29"/>
<stop offset="1" stop-color="#002E40"/>
</linearGradient>
<linearGradient id="paint66_linear_1_2" x1="977.915" y1="836.475" x2="1013.58" y2="862.478" gradientUnits="userSpaceOnUse">
<stop stop-color="#0B707A"/>
<stop offset="1" stop-color="#0B2C3F"/>
</linearGradient>
<linearGradient id="paint67_linear_1_2" x1="975.431" y1="830.077" x2="1025.61" y2="866.197" gradientUnits="userSpaceOnUse">
<stop stop-color="#52EDE5"/>
<stop offset="1" stop-color="#11848B"/>
</linearGradient>
<linearGradient id="paint68_linear_1_2" x1="1048.55" y1="862.983" x2="1092.74" y2="843.206" gradientUnits="userSpaceOnUse">
<stop stop-color="#00575C"/>
<stop offset="1" stop-color="#1CDDC8"/>
</linearGradient>
<linearGradient id="paint69_linear_1_2" x1="1097.25" y1="829.568" x2="1056.81" y2="851.344" gradientUnits="userSpaceOnUse">
<stop stop-color="#27FAE7"/>
<stop offset="1" stop-color="#08D2C6"/>
</linearGradient>
<linearGradient id="paint70_linear_1_2" x1="972.168" y1="813.49" x2="997.491" y2="825.153" gradientUnits="userSpaceOnUse">
<stop stop-color="#2BF48C"/>
<stop offset="1" stop-color="#0ADF8B"/>
</linearGradient>
<linearGradient id="paint71_linear_1_2" x1="976.067" y1="807.405" x2="972.708" y2="798.7" gradientUnits="userSpaceOnUse">
<stop stop-color="#124D53"/>
<stop offset="1" stop-color="#006E68"/>
</linearGradient>
<linearGradient id="paint72_linear_1_2" x1="1041.24" y1="836.07" x2="1021.04" y2="810.65" gradientUnits="userSpaceOnUse">
<stop stop-color="#0F2E4B"/>
<stop offset="0.476532" stop-color="#054C4F"/>
<stop offset="1" stop-color="#13E1BE"/>
</linearGradient>
<linearGradient id="paint73_linear_1_2" x1="1084.37" y1="818.497" x2="1099.5" y2="820.402" gradientUnits="userSpaceOnUse">
<stop stop-color="#006F6B"/>
<stop offset="1" stop-color="#01A79B"/>
</linearGradient>
<linearGradient id="paint74_linear_1_2" x1="1086.51" y1="815.252" x2="1100.38" y2="804.235" gradientUnits="userSpaceOnUse">
<stop stop-color="#10D377"/>
<stop offset="1" stop-color="#64F78C"/>
</linearGradient>
<linearGradient id="paint75_linear_1_2" x1="1006.75" y1="766.766" x2="1051.74" y2="818.758" gradientUnits="userSpaceOnUse">
<stop stop-color="#51F18F"/>
<stop offset="0.168627" stop-color="#3CF389"/>
<stop offset="0.529412" stop-color="#14E1BA"/>
<stop offset="1" stop-color="#12E1C3"/>
</linearGradient>
<linearGradient id="paint76_linear_1_2" x1="1038.2" y1="767.218" x2="1035.56" y2="803.988" gradientUnits="userSpaceOnUse">
<stop stop-color="#1EF6D1"/>
<stop offset="1" stop-color="#005A54"/>
</linearGradient>
<linearGradient id="paint77_linear_1_2" x1="1040.72" y1="773.872" x2="1035.56" y2="794.065" gradientUnits="userSpaceOnUse">
<stop stop-color="#13DEC0"/>
<stop offset="1" stop-color="#0C5661"/>
</linearGradient>
<linearGradient id="paint78_linear_1_2" x1="1048.16" y1="824.651" x2="1038.35" y2="817.605" gradientUnits="userSpaceOnUse">
<stop stop-color="#046667"/>
<stop offset="1" stop-color="#335B65"/>
</linearGradient>
<linearGradient id="paint79_linear_1_2" x1="294.717" y1="749.433" x2="295.907" y2="848.334" gradientUnits="userSpaceOnUse">
<stop stop-color="#80F74D"/>
<stop offset="1" stop-color="#00B254"/>
</linearGradient>
<linearGradient id="paint80_linear_1_2" x1="245.88" y1="826.934" x2="324.602" y2="846.687" gradientUnits="userSpaceOnUse">
<stop stop-color="#0B1D29"/>
<stop offset="1" stop-color="#002E40"/>
</linearGradient>
<linearGradient id="paint81_linear_1_2" x1="236.915" y1="815.475" x2="272.581" y2="841.478" gradientUnits="userSpaceOnUse">
<stop stop-color="#0B707A"/>
<stop offset="1" stop-color="#0B2C3F"/>
</linearGradient>
<linearGradient id="paint82_linear_1_2" x1="234.431" y1="809.077" x2="284.614" y2="845.197" gradientUnits="userSpaceOnUse">
<stop stop-color="#52EDE5"/>
<stop offset="1" stop-color="#11848B"/>
</linearGradient>
<linearGradient id="paint83_linear_1_2" x1="307.547" y1="841.983" x2="351.74" y2="822.206" gradientUnits="userSpaceOnUse">
<stop stop-color="#00575C"/>
<stop offset="1" stop-color="#1CDDC8"/>
</linearGradient>
<linearGradient id="paint84_linear_1_2" x1="356.245" y1="808.568" x2="315.809" y2="830.344" gradientUnits="userSpaceOnUse">
<stop stop-color="#27FAE7"/>
<stop offset="1" stop-color="#08D2C6"/>
</linearGradient>
<linearGradient id="paint85_linear_1_2" x1="231.168" y1="792.49" x2="256.491" y2="804.153" gradientUnits="userSpaceOnUse">
<stop stop-color="#2BF48C"/>
<stop offset="1" stop-color="#0ADF8B"/>
</linearGradient>
<linearGradient id="paint86_linear_1_2" x1="235.067" y1="786.405" x2="231.708" y2="777.7" gradientUnits="userSpaceOnUse">
<stop stop-color="#124D53"/>
<stop offset="1" stop-color="#006E68"/>
</linearGradient>
<linearGradient id="paint87_linear_1_2" x1="300.237" y1="815.07" x2="280.044" y2="789.65" gradientUnits="userSpaceOnUse">
<stop stop-color="#0F2E4B"/>
<stop offset="0.476532" stop-color="#054C4F"/>
<stop offset="1" stop-color="#13E1BE"/>
</linearGradient>
<linearGradient id="paint88_linear_1_2" x1="343.373" y1="797.497" x2="358.503" y2="799.402" gradientUnits="userSpaceOnUse">
<stop stop-color="#006F6B"/>
<stop offset="1" stop-color="#01A79B"/>
</linearGradient>
<linearGradient id="paint89_linear_1_2" x1="345.512" y1="794.252" x2="359.376" y2="783.235" gradientUnits="userSpaceOnUse">
<stop stop-color="#10D377"/>
<stop offset="1" stop-color="#64F78C"/>
</linearGradient>
<linearGradient id="paint90_linear_1_2" x1="265.746" y1="745.766" x2="310.737" y2="797.758" gradientUnits="userSpaceOnUse">
<stop stop-color="#51F18F"/>
<stop offset="0.168627" stop-color="#3CF389"/>
<stop offset="0.529412" stop-color="#14E1BA"/>
<stop offset="1" stop-color="#12E1C3"/>
</linearGradient>
<linearGradient id="paint91_linear_1_2" x1="297.198" y1="746.218" x2="294.564" y2="782.988" gradientUnits="userSpaceOnUse">
<stop stop-color="#1EF6D1"/>
<stop offset="1" stop-color="#005A54"/>
</linearGradient>
<linearGradient id="paint92_linear_1_2" x1="299.722" y1="752.872" x2="294.564" y2="773.065" gradientUnits="userSpaceOnUse">
<stop stop-color="#13DEC0"/>
<stop offset="1" stop-color="#0C5661"/>
</linearGradient>
<linearGradient id="paint93_linear_1_2" x1="307.164" y1="803.651" x2="297.352" y2="796.605" gradientUnits="userSpaceOnUse">
<stop stop-color="#046667"/>
<stop offset="1" stop-color="#335B65"/>
</linearGradient>
</defs>
</svg>
