<svg width="48" height="48" viewBox="0 0 48 48" fill="none" xmlns="http://www.w3.org/2000/svg">
<g clip-path="url(#clip0_40_184)">
<g clip-path="url(#clip1_40_184)">
<g clip-path="url(#clip2_40_184)">
<path d="M48 24C48 10.7452 37.2548 0 24 0C10.7452 0 0 10.7452 0 24C0 37.2548 10.7452 48 24 48C37.2548 48 48 37.2548 48 24Z" fill="white"/>
<path fill-rule="evenodd" clip-rule="evenodd" d="M36.81 17.105C36.0505 15.754 35.2263 15.5055 33.548 15.411C31.8715 15.2973 27.6557 15.25 24.0035 15.25C20.3442 15.25 16.1267 15.2973 14.452 15.4093C12.7772 15.5055 11.9512 15.7522 11.1847 17.105C10.4025 18.4542 10 20.7782 10 24.8697V24.8838C10 28.9578 10.4025 31.2993 11.1847 32.6345C11.9512 33.9855 12.7755 34.2305 14.4502 34.3443C16.1267 34.4423 20.3442 34.5 24.0035 34.5C27.6557 34.5 31.8715 34.4422 33.5497 34.346C35.228 34.2322 36.0523 33.9873 36.8118 32.6363C37.601 31.301 38 28.9595 38 24.8855V24.8715C38 20.7783 37.601 18.4542 36.81 17.105Z" fill="#F44336"/>
<path fill-rule="evenodd" clip-rule="evenodd" d="M20.5 30.125V19.625L29.25 24.875L20.5 30.125Z" fill="#FAFAFA"/>
</g>
</g>
</g>
<defs>
<clipPath id="clip0_40_184">
<rect width="48" height="48" fill="white"/>
</clipPath>
<clipPath id="clip1_40_184">
<rect width="48" height="48" fill="white"/>
</clipPath>
<clipPath id="clip2_40_184">
<rect width="48" height="48" fill="white"/>
</clipPath>
</defs>
</svg>
